<svg width="18" height="16" viewBox="0 0 18 16" fill="none" xmlns="http://www.w3.org/2000/svg">
<path d="M17.7123 7.30069L11.2119 0.800108C11.0263 0.614548 10.779 0.512695 10.5153 0.512695C10.2513 0.512695 10.0041 0.614694 9.81855 0.800108L9.22836 1.39044C9.04294 1.57571 8.9408 1.82317 8.9408 2.08702C8.9408 2.35073 9.04294 2.60653 9.22836 2.7918L13.0206 6.5924H0.97243C0.429216 6.5924 0 7.01767 0 7.56103V8.39561C0 8.93897 0.429216 9.40711 0.97243 9.40711H13.0636L9.2285 13.2289C9.04309 13.4145 8.94094 13.6552 8.94094 13.9191C8.94094 14.1826 9.04309 14.4269 9.2285 14.6123L9.81869 15.2007C10.0043 15.3863 10.2514 15.4874 10.5154 15.4874C10.7791 15.4874 11.0264 15.385 11.212 15.1994L17.7124 8.69897C17.8984 8.51283 18.0007 8.26434 18 8.0002C18.0006 7.73517 17.8984 7.48654 17.7123 7.30069Z" fill="white"/>
</svg>
