<svg width="26" height="18" viewBox="0 0 26 18" fill="none" xmlns="http://www.w3.org/2000/svg">
<g clip-path="url(#clip0_29_36)">
<path d="M25.4518 8.45188L1.87114 8.45188L9.15672 1.16629C9.37083 0.952183 9.37083 0.605353 9.15672 0.391295C8.94261 0.177185 8.59578 0.177185 8.38172 0.391295L0.160582 8.61245C-0.0535273 8.82656 -0.0535273 9.17339 0.160582 9.38745L8.38172 17.6086C8.48875 17.7156 8.62902 17.7692 8.76925 17.7692C8.90947 17.7692 9.04969 17.7156 9.15677 17.6086C9.37088 17.3945 9.37088 17.0477 9.15677 16.8336L1.87114 9.54807L25.4519 9.54807C25.7548 9.54807 26 9.30292 26 8.99997C26 8.69702 25.7548 8.45188 25.4518 8.45188Z" fill="white"/>
</g>
<defs>
<clipPath id="clip0_29_36">
<rect width="26" height="18" fill="white"/>
</clipPath>
</defs>
</svg>
