<svg width="78" height="77" viewBox="0 0 78 77" fill="none" xmlns="http://www.w3.org/2000/svg">
<g clip-path="url(#clip0_3590_11755)">
<path d="M39.0884 0C34.063 0.00568926 29.9905 4.02592 29.9847 8.98695V52.0318C26.1198 55.1459 24.1975 60.0371 24.9237 64.9097C26.0276 72.6326 33.265 78.0095 41.0877 76.9192C48.157 75.9339 53.4082 69.9545 53.3936 62.9071C53.4067 58.6934 51.4959 54.6991 48.1916 52.0318V8.98695C48.1863 4.02592 44.1139 0.00568926 39.0884 0V0ZM50.7928 62.9071C50.8012 69.2879 45.5683 74.4682 39.1041 74.4765C32.64 74.4853 27.3924 69.3189 27.384 62.9376C27.3793 59.2955 29.114 55.8643 32.0658 53.6791C32.3932 53.4366 32.586 53.0559 32.586 52.652V48.7848H35.1868V46.2174H32.586V42.3658H35.1868V39.7984H32.586V35.9468H35.1868V33.3794H32.586V29.5277H35.1868V26.9603H32.586V23.1087H35.1868V20.5413H32.586V16.6897H35.1868V14.1223H32.586V8.98695C32.586 5.44151 35.4969 2.56792 39.0884 2.56792C42.6794 2.56792 45.5908 5.44151 45.5908 8.98695V52.6546C45.5908 53.0585 45.7836 53.4392 46.1111 53.6812C49.0644 55.8504 50.8012 59.2732 50.7928 62.9071Z" fill="white"/>
<path d="M40.3879 56.6162V11.5542H37.7872V56.6162C34.2685 57.3253 31.9984 60.7156 32.7167 64.1891C33.435 67.6627 36.8693 69.9037 40.3879 69.1946C43.9066 68.4855 46.1767 65.0953 45.4584 61.6217C44.9371 59.1003 42.9415 57.1308 40.3879 56.6162ZM39.0875 66.7581C36.9327 66.7581 35.1859 65.0337 35.1859 62.907C35.1859 60.7797 36.9327 59.0553 39.0875 59.0553C41.2424 59.0553 42.9892 60.7797 42.9892 62.907C42.9892 65.0337 41.2424 66.7581 39.0875 66.7581Z" fill="white"/>
</g>
<defs>
<clipPath id="clip0_3590_11755">
<rect width="78" height="77" fill="white"/>
</clipPath>
</defs>
</svg>
