<svg width="77" height="77" viewBox="0 0 77 77" fill="none" xmlns="http://www.w3.org/2000/svg">
<g clip-path="url(#clip0_3590_11772)">
<path d="M71.7446 19.302C71.3568 18.635 70.5015 18.4087 69.8344 18.7965L63.0119 22.7402C62.3449 23.1281 62.1186 23.9834 62.5064 24.6504C62.8942 25.3174 63.7496 25.5437 64.4166 25.1559L71.2391 21.2121C71.9061 20.8241 72.1324 19.969 71.7446 19.302Z" fill="white"/>
<path d="M71.2391 55.7954L64.4166 51.8516C63.7496 51.4638 62.8942 51.6902 62.5064 52.3572C62.1186 53.0242 62.3449 53.8795 63.0119 54.2673L69.8344 58.2111C70.5015 58.5989 71.3568 58.3726 71.7446 57.7056C72.1324 57.0384 71.9061 56.1832 71.2391 55.7954Z" fill="white"/>
<path d="M38.6078 66.1065C37.8341 66.049 37.1605 66.6295 37.103 67.4032C37.0978 67.4725 37.0978 67.542 37.103 67.6112V75.4911C37.0456 76.2648 37.6261 76.9384 38.3998 76.9959C39.1735 77.0534 39.8471 76.4728 39.9046 75.6991C39.9098 75.6298 39.9098 75.5604 39.9046 75.4911V67.6112C39.9619 66.8377 39.3813 66.164 38.6078 66.1065Z" fill="white"/>
<path d="M13.9886 22.7402L7.16609 18.7965C6.49908 18.4087 5.64376 18.635 5.25594 19.302C4.86812 19.969 5.09445 20.8243 5.76146 21.2121L12.584 25.1559C13.251 25.5437 14.1063 25.3174 14.4941 24.6504C14.8819 23.9832 14.6556 23.1281 13.9886 22.7402Z" fill="white"/>
<path d="M38.6078 0.00392759C37.8341 -0.0535698 37.1605 0.527 37.103 1.30071C37.0978 1.36997 37.0978 1.43943 37.103 1.5087V9.38855C37.1073 10.1582 37.7303 10.7812 38.4999 10.7855C39.2758 10.7855 39.9046 10.1567 39.9046 9.38083V1.50889C39.9619 0.735186 39.3813 0.061425 38.6078 0.00392759Z" fill="white"/>
<path d="M25.1487 12.584L21.2126 5.76146C20.8248 5.09445 19.9695 4.86812 19.3025 5.25594C18.6355 5.64376 18.4091 6.49908 18.797 7.16609L22.733 13.9886C23.1208 14.6556 23.9762 14.8819 24.6432 14.4941C25.3102 14.1061 25.5365 13.251 25.1487 12.584Z" fill="white"/>
<path d="M38.7083 26.0356C38.6391 26.0304 38.5696 26.0304 38.5003 26.0356C31.6165 26.0356 26.0361 31.616 26.0361 38.4998C26.0361 39.2757 26.6649 39.9045 27.4408 39.9045C28.2135 39.9002 28.8377 39.2726 28.8377 38.4998C28.8334 33.1676 33.1527 28.8414 38.4849 28.8372C38.4901 28.8372 38.4951 28.8372 38.5003 28.8372C39.274 28.8947 39.9476 28.3141 40.0051 27.5404C40.0626 26.7667 39.482 26.0929 38.7083 26.0356Z" fill="white"/>
<path d="M76.7879 38.392C76.7363 37.6984 76.1849 37.1468 75.4911 37.0952H67.6112C66.8375 37.0377 66.164 37.6183 66.1065 38.392C66.049 39.1657 66.6295 39.8393 67.4032 39.8968C67.4725 39.902 67.5422 39.902 67.6114 39.8968H75.4913C76.2648 39.8395 76.8454 39.1657 76.7879 38.392Z" fill="white"/>
<path d="M9.59655 37.103C9.52728 37.0978 9.45782 37.0978 9.38856 37.103H1.50871C0.735007 37.1605 0.154438 37.8343 0.211935 38.6078C0.263452 39.3014 0.814886 39.8531 1.50871 39.9046H9.38856C10.1623 39.9621 10.8358 39.3815 10.8933 38.6078C10.9508 37.8341 10.3703 37.1603 9.59655 37.103Z" fill="white"/>
<path d="M38.5057 17.8857C27.1209 17.8842 17.8904 27.1121 17.8887 38.497C17.8879 43.9664 20.0608 49.212 23.9288 53.0788C27.7894 56.949 33.0334 59.121 38.4999 59.1141C49.8848 59.1156 59.1155 49.8877 59.117 38.5028C59.1185 27.1179 49.8906 17.8873 38.5057 17.8857ZM51.0953 51.1185C44.1391 58.0747 32.8608 58.0747 25.9045 51.1185C22.5583 47.7722 20.6812 43.232 20.6873 38.4999C20.6806 33.7743 22.5583 29.2411 25.9045 25.9045V25.9277C32.8608 18.9714 44.1391 18.9714 51.0953 25.9277C58.0518 32.8839 58.0518 44.1622 51.0953 51.1185Z" fill="white"/>
<path d="M58.207 69.8406C58.2058 69.8385 58.2046 69.8364 58.2033 69.8344L54.2595 63.0119C53.8717 62.3449 53.0164 62.1186 52.3493 62.5064C51.6823 62.8942 51.456 63.7496 51.8438 64.4166L55.7876 71.2391C56.1739 71.9053 57.0267 72.1332 57.6939 71.7484C58.3625 71.3631 58.5923 70.509 58.207 69.8406Z" fill="white"/>
<path d="M57.744 5.25594C57.077 4.86812 56.2217 5.09445 55.8339 5.76146L51.8901 12.584C51.4996 13.2494 51.7226 14.1053 52.3879 14.4957C52.3892 14.4964 52.3904 14.4972 52.3918 14.498C53.0582 14.8866 53.9135 14.6614 54.3021 13.9948C54.3033 13.9927 54.3046 13.9905 54.3058 13.9886L58.2495 7.16609C58.6374 6.49889 58.411 5.64376 57.744 5.25594Z" fill="white"/>
<path d="M24.6509 62.5064C23.9839 62.1186 23.1286 62.3449 22.7407 63.0119L18.797 69.8344C18.4091 70.5014 18.6355 71.3568 19.3025 71.7446C19.9695 72.1324 20.8248 71.9061 21.2126 71.2391L25.1564 64.4166C25.5442 63.7494 25.3179 62.8942 24.6509 62.5064Z" fill="white"/>
<path d="M14.4941 52.3498C14.1063 51.6828 13.251 51.4565 12.584 51.8443L5.76146 55.7881C5.09445 56.1759 4.86812 57.0313 5.25594 57.6983C5.64376 58.3653 6.49908 58.5916 7.16609 58.2038L13.9886 54.26C14.6556 53.872 14.8819 53.0168 14.4941 52.3498Z" fill="white"/>
</g>
<defs>
<clipPath id="clip0_3590_11772">
<rect width="77" height="77" fill="white"/>
</clipPath>
</defs>
</svg>
