<svg width="77" height="77" viewBox="0 0 77 77" fill="none" xmlns="http://www.w3.org/2000/svg">
<g clip-path="url(#clip0_3590_11758)">
<path d="M75.4902 36.9902H69.1102L70.6645 35.4359C71.254 34.8464 71.254 33.8904 70.6645 33.3007C70.0748 32.7113 69.1191 32.7113 68.5292 33.3007L64.8399 36.9904H58.2392L62.797 32.4326C63.3865 31.8431 63.3865 30.8871 62.797 30.2974C62.2073 29.708 61.2515 29.708 60.6617 30.2974L53.9689 36.9905H42.1452L50.5058 28.6299H59.971C60.8047 28.6299 61.4807 27.9537 61.4807 27.1201C61.4807 26.2863 60.8046 25.6103 59.971 25.6103H53.5255L58.1929 20.9429H67.6579C68.4917 20.9429 69.1677 20.2668 69.1677 19.4332C69.1677 18.5994 68.4915 17.9234 67.6579 17.9234H61.2126L65.7239 13.4121C66.3134 12.8226 66.3134 11.8666 65.7239 11.2769C65.1342 10.6875 64.1784 10.6875 63.5886 11.2769L59.0773 15.7882V9.34227C59.0773 8.5085 58.4012 7.8325 57.5676 7.8325C56.734 7.8325 56.0578 8.50865 56.0578 9.34227V18.8073L51.3904 23.4746V17.0292C51.3904 16.1954 50.7143 15.5194 49.8807 15.5194C49.047 15.5194 48.3709 16.1956 48.3709 17.0292V26.4943L40.0102 34.855V23.0313L46.7032 16.3384C47.2927 15.7489 47.2927 14.7929 46.7032 14.2032C46.1138 13.6141 45.1581 13.6138 44.568 14.2032L40.0104 18.7609V12.1603L46.7034 5.46745C47.2929 4.87792 47.2929 3.92189 46.7034 3.33221C46.114 2.74313 45.1582 2.74282 44.5681 3.33221L40.0105 7.88994V1.50977C40.0098 0.676156 39.3338 0 38.5 0C37.6662 0 36.9902 0.676156 36.9902 1.50977V7.88979L32.4325 3.33206C31.8428 2.74267 30.8871 2.74267 30.2972 3.33206C29.7077 3.92159 29.7077 4.87762 30.2972 5.4673L36.9904 12.1601V18.7608L32.4326 14.203C31.843 13.6137 30.8872 13.6137 30.2974 14.203C29.7079 14.7926 29.7079 15.7486 30.2974 16.3383L36.9905 23.0311V34.8548L28.6299 26.4942V17.029C28.6299 16.1953 27.9537 15.5193 27.1201 15.5193C26.2863 15.5193 25.6103 16.1954 25.6103 17.029V23.4745L20.9429 18.8071V9.34227C20.9429 8.5085 20.2668 7.8325 19.4332 7.8325C18.5994 7.8325 17.9234 8.50865 17.9234 9.34227V15.7876L13.4115 11.2763C12.8219 10.6869 11.8661 10.6869 11.2763 11.2763C10.6868 11.8658 10.6868 12.8219 11.2763 13.4115L15.7876 17.9228H9.34227C8.5085 17.9228 7.83249 18.599 7.83249 19.4326C7.83249 20.2663 8.50865 20.9423 9.34227 20.9423H18.8072L23.4746 25.6097H17.0292C16.1954 25.6097 15.5194 26.2859 15.5194 27.1195C15.5194 27.9533 16.1956 28.6293 17.0292 28.6293H26.4943L34.855 36.9899H23.0313L16.3384 30.2969C15.7491 29.7077 14.7933 29.7076 14.2032 30.2969C13.6137 30.8865 13.6137 31.8425 14.2032 32.4322L18.7609 36.9898H12.1603L5.46745 30.2968C4.87792 29.7076 3.92219 29.7074 3.33221 30.2968C2.74267 30.8863 2.74267 31.8424 3.33221 32.432L7.88994 36.9896H1.50977C0.676156 36.9902 0 37.6662 0 38.5C0 39.3338 0.676156 40.0098 1.50977 40.0098H7.88979L3.33205 44.5675C2.74252 45.157 2.74252 46.1131 3.33205 46.7028C3.62697 46.9975 4.01332 47.1449 4.39968 47.1449C4.78603 47.1449 5.17238 46.9974 5.4673 46.7028L12.1603 40.0096H18.7609L14.2032 44.5674C13.6137 45.1569 13.6137 46.1129 14.2032 46.7026C14.4981 46.9974 14.8845 47.1448 15.2708 47.1448C15.6572 47.1448 16.0435 46.9972 16.3384 46.7026L23.0314 40.0095H34.8551L26.4945 48.3701H17.0293C16.1956 48.3701 15.5196 49.0463 15.5196 49.8799C15.5196 50.7135 16.1957 51.3897 17.0293 51.3897H23.4748L18.8074 56.0571H9.34227C8.5085 56.0571 7.83249 56.7332 7.83249 57.5668C7.83249 58.4004 8.50865 59.0766 9.34227 59.0766H15.7876L11.2763 63.5885C10.6868 64.178 10.6868 65.134 11.2763 65.7237C11.5712 66.0185 11.9576 66.1659 12.3439 66.1659C12.7303 66.1659 13.1166 66.0183 13.4115 65.7237L17.9228 61.2125V67.6577C17.9228 68.4915 18.599 69.1675 19.4326 69.1675C20.2662 69.1675 20.9423 68.4914 20.9423 67.6577V58.1928L25.6097 53.5254V59.9708C25.6097 60.8046 26.2859 61.4806 27.1195 61.4806C27.9533 61.4806 28.6293 60.8044 28.6293 59.9708V50.5057L36.9901 42.145V53.9687L30.2971 60.6616C29.7076 61.2511 29.7076 62.2071 30.2971 62.7968C30.8868 63.386 31.8425 63.3863 32.4323 62.7968L36.9899 58.2391V64.8397L30.2969 71.5326C29.7074 72.1221 29.7074 73.0781 30.2969 73.6678C30.8866 74.2572 31.8424 74.2573 32.4322 73.6678L36.9898 69.1101V75.4901C36.9898 76.3239 37.6659 76.9999 38.4995 76.9999C39.3333 76.9999 40.0093 76.3237 40.0093 75.4901V69.1101L44.5671 73.6678C44.862 73.9626 45.2483 74.1099 45.6347 74.1099C46.021 74.1099 46.4074 73.9624 46.7023 73.6678C47.2918 73.0783 47.2918 72.1222 46.7023 71.5326L40.0093 64.8397V58.2391L44.5671 62.7968C44.862 63.0916 45.2483 63.239 45.6347 63.239C46.021 63.239 46.4074 63.0914 46.7023 62.7968C47.2918 62.2073 47.2918 61.2512 46.7023 60.6616L40.0093 53.9687V42.145L48.37 50.5057V59.9708C48.37 60.8046 49.0461 61.4806 49.8798 61.4806C50.7134 61.4806 51.3895 60.8044 51.3895 59.9708V53.5254L56.0569 58.1928V67.6577C56.0569 68.4915 56.7331 69.1675 57.5667 69.1675C58.4003 69.1675 59.0764 68.4914 59.0764 67.6577V61.2125L63.5877 65.7237C63.8826 66.0185 64.269 66.1659 64.6553 66.1659C65.0417 66.1659 65.428 66.0183 65.723 65.7237C66.3125 65.1342 66.3125 64.1782 65.723 63.5885L61.2117 59.0772H67.657C68.4907 59.0772 69.1668 58.401 69.1668 57.5674C69.1668 56.7338 68.4906 56.0577 67.657 56.0577H58.192L53.5246 51.3903H59.9701C60.8038 51.3903 61.4798 50.7141 61.4798 49.8805C61.4798 49.0469 60.8037 48.3707 59.9701 48.3707H50.5057L42.1452 40.0101H53.9689L60.6617 46.7031C60.9566 46.9978 61.343 47.1452 61.7293 47.1452C62.1157 47.1452 62.502 46.9977 62.797 46.7031C63.3865 46.1135 63.3865 45.1575 62.797 44.5678L58.2394 40.0102H64.84L71.5329 46.7032C71.8278 46.998 72.2141 47.1454 72.6005 47.1454C72.9868 47.1454 73.3732 46.9978 73.6681 46.7032C74.2576 46.1137 74.2576 45.1576 73.6681 44.568L69.1105 40.0104H75.4905C76.3243 40.0104 77.0003 39.3342 77.0003 38.5006C77 37.6662 76.3238 36.9902 75.4902 36.9902Z" fill="white"/>
<path d="M72.6006 36.9902C70.6576 36.9902 70.6543 40.0098 72.6006 40.0098C74.5435 40.0098 74.5467 36.9902 72.6006 36.9902Z" fill="white"/>
</g>
<defs>
<clipPath id="clip0_3590_11758">
<rect width="77" height="77" fill="white"/>
</clipPath>
</defs>
</svg>
