<svg width="60" height="59" viewBox="0 0 60 59" fill="none" xmlns="http://www.w3.org/2000/svg">
<g clip-path="url(#clip0_3590_11769)">
<path d="M56.9998 39.3332H47.3117L55.6975 34.5717C56.3887 34.1827 56.8941 33.5395 57.1019 32.7833C57.3102 32.0271 57.2035 31.2209 56.8057 30.5425L49.8038 18.6203C49.4051 17.9424 48.7482 17.4481 47.9787 17.2469C47.2092 17.0416 46.3879 17.1497 45.7004 17.5462L37.3128 22.3091L42.1536 14.0653C42.5555 13.3874 42.6659 12.5799 42.4608 11.8214C42.2557 11.063 41.7513 10.4161 41.06 10.0245L28.9375 3.13924C28.2477 2.74942 27.4287 2.64544 26.6611 2.8498C25.8934 3.05416 25.2397 3.54976 24.8438 4.22811L20.0002 12.4786V2.95018C19.9983 1.32159 18.6562 0.00180054 17 0H3.00018C1.34399 0.00180054 0.00183105 1.32159 0 2.95018V56.0498C0.00183105 57.6784 1.34399 58.9982 3.00018 59H56.9998C58.656 58.9982 59.9982 57.6784 60 56.0498V42.2834C59.9982 40.6548 58.656 39.335 56.9998 39.3332ZM3.00018 39.3332C2.65869 39.3368 2.3204 39.398 1.99997 39.5146V29.5H10.0058L4.23248 39.3332H3.00018ZM43.3118 39.3332H29.637L25.0557 31.54L35.4465 25.6401L43.4427 39.2594L43.3118 39.3332ZM33.8475 24.2766L22.0088 30.9994L14.0785 26.4967L20.0761 16.2818L33.9253 24.1443L33.8475 24.2766ZM18.0002 15.8843L11.8552 26.3509C11.852 26.3558 11.8469 26.3581 11.8437 26.3635L11.8382 26.3792L11.1607 27.5334H1.99997V15.7335H18.0002V15.8843ZM13.0788 28.2L20.0089 32.1351L7.332 39.3332H6.5419L13.0788 28.2ZM22.4959 32.9939L22.5087 32.9867L23.324 32.5236L27.3271 39.3332H11.3319L22.4959 32.9939ZM18.0002 41.2998H30V57.0334H18.0002V41.2998ZM32 41.2998H43.9998V57.0334H32V41.2998ZM46.7043 19.2473C46.9322 19.115 47.2055 19.0785 47.4614 19.146C47.7196 19.2144 47.9398 19.3801 48.0743 19.6074L55.0722 31.5234C55.2054 31.7498 55.2411 32.019 55.1711 32.2715C55.101 32.5236 54.9316 32.7383 54.7 32.8666L45.1744 38.2749L37.1786 24.6561L46.7043 19.2473ZM26.5778 5.2085C26.7087 4.98254 26.9261 4.81689 27.182 4.74847C27.4374 4.68005 27.7103 4.71426 27.9401 4.84389L40.0562 11.7251C40.2892 11.857 40.4594 12.0744 40.5295 12.3296C40.5981 12.5831 40.5602 12.8527 40.4237 13.0782L34.926 22.441L21.0764 14.5785L26.5778 5.2085ZM3.00018 1.96664H17C17.552 1.96754 17.9993 2.40732 18.0002 2.95018V13.7665H1.99997V2.95018C2.00089 2.40732 2.44812 1.96754 3.00018 1.96664ZM1.99997 56.0498V42.2834C2.00089 41.7405 2.44812 41.3007 3.00018 41.2998H16.0002V57.0334H3.00018C2.44812 57.0325 2.00089 56.5927 1.99997 56.0498ZM58 56.0498C57.9991 56.5927 57.5519 57.0325 56.9998 57.0334H46.0002V41.2998H56.9998C57.5519 41.3007 57.9991 41.7405 58 42.2834V56.0498Z" fill="white"/>
<path d="M9.99994 45.2334C7.79077 45.2334 6 46.9943 6 49.1667C6 51.339 7.79077 53.0999 9.99994 53.0999C12.2091 53.0999 13.9999 51.339 13.9999 49.1667C13.9976 46.9952 12.2082 45.2356 9.99994 45.2334ZM9.99994 51.1333C8.89535 51.1333 7.99997 50.2528 7.99997 49.1667C7.99997 48.0805 8.89535 47.2 9.99994 47.2C11.1045 47.2 11.9999 48.0805 11.9999 49.1667C11.999 50.2524 11.1041 51.132 9.99994 51.1333Z" fill="white"/>
</g>
<defs>
<clipPath id="clip0_3590_11769">
<rect width="60" height="59" fill="white"/>
</clipPath>
</defs>
</svg>
