<svg width="77" height="77" viewBox="0 0 77 77" fill="none" xmlns="http://www.w3.org/2000/svg">
<g clip-path="url(#clip0_3590_11815)">
<path d="M77 5.24671C77.0059 3.84071 76.4633 2.52073 75.4722 1.52966C74.4811 0.538583 73.1586 -0.00312429 71.7553 0.001989C70.3533 0.00785423 69.0335 0.558735 68.039 1.55312C67.6179 1.97421 66.8519 2.88377 66.433 3.38863C65.9929 3.91876 66.0657 4.70531 66.5958 5.1452C67.1258 5.58524 67.9123 5.51245 68.3524 4.98233C69.0087 4.19187 69.5511 3.5694 69.8031 3.31735C70.3291 2.79143 71.026 2.49998 71.7657 2.49682C71.7697 2.49682 71.7735 2.49682 71.7775 2.49682C72.5087 2.49682 73.1941 2.77955 73.7081 3.29374C74.225 3.81063 74.5082 4.50047 74.505 5.23618C74.5019 5.97565 74.2104 6.67256 73.6845 7.19878C73.2136 7.66965 71.5951 8.95354 69.2762 10.5734C67.9045 8.22821 65.3605 6.64835 62.453 6.64835H44.186C41.7202 6.64835 39.402 7.6086 37.6583 9.35207L1.14492 45.8659C0.406656 46.6041 0 47.5857 0 48.6297C0 49.6738 0.406656 50.6555 1.14492 51.3936L25.6085 75.8572C26.3707 76.6192 27.3714 77.0002 28.3724 77.0002C29.3734 77.0002 30.3744 76.6191 31.1363 75.8572L67.6499 39.3437C69.3934 37.6001 70.3536 35.282 70.3536 32.816V14.5491C70.3536 14.01 70.299 13.4836 70.1956 12.9745C72.8351 11.1583 74.7727 9.63887 75.4486 8.96301C76.4433 7.96863 76.9941 6.6488 77 5.24671ZM67.8588 32.816C67.8588 34.6154 67.158 36.3072 65.8858 37.5793L29.3722 74.0931C28.8212 74.6443 27.9239 74.6443 27.3727 74.0931L2.90916 49.6295C2.64221 49.3626 2.49498 49.0075 2.49498 48.6297C2.49498 48.252 2.64206 47.897 2.90916 47.6301L39.4226 11.1166C40.6951 9.8443 42.3867 9.14363 44.186 9.14363H62.4529C64.5042 9.14363 66.2923 10.2922 67.2079 11.9798C65.7344 12.9556 64.0844 13.9931 62.3341 15.0134C62.2795 14.9535 62.2237 14.8943 62.1658 14.8364C60.1229 12.7935 56.7989 12.7935 54.756 14.8364C52.7131 16.8793 52.7131 20.2032 54.756 22.2461C55.7775 23.2676 57.1193 23.7781 58.4609 23.7781C59.8025 23.7781 61.1443 23.2676 62.1658 22.2461C63.5294 20.8825 63.9813 18.9487 63.5247 17.2055C65.0471 16.3192 66.5091 15.4134 67.8582 14.5371C67.8584 14.5413 67.8587 14.5452 67.8587 14.5493V32.816H67.8588ZM57.3468 19.1017C57.5659 19.5374 58.0057 19.7889 58.4622 19.7889C58.6507 19.7889 58.8421 19.746 59.022 19.6555C59.7532 19.2876 60.4818 18.905 61.2033 18.5131C61.2105 19.2252 60.9443 19.9396 60.402 20.4819C59.3318 21.5519 57.5909 21.5519 56.5207 20.4819C55.4507 19.4117 55.4507 17.6708 56.5207 16.6006C57.0558 16.0655 57.7586 15.7981 58.4613 15.7981C59.0178 15.7981 59.5726 15.9687 60.0459 16.3039C59.3398 16.6877 58.6232 17.0635 57.9008 17.427C57.285 17.7364 57.037 18.4863 57.3468 19.1017Z" fill="white"/>
<path d="M37.1708 25.4102C36.4819 25.4102 35.9233 25.9686 35.9233 26.6576V53.0029C35.9233 53.6919 36.4819 54.2504 37.1708 54.2504C37.8598 54.2504 38.4183 53.6919 38.4183 53.0029V26.6576C38.4183 25.9686 37.8598 25.4102 37.1708 25.4102Z" fill="white"/>
<path d="M31.4665 36.1256C29.4238 34.0824 26.0997 34.0826 24.0571 36.1255C22.0142 38.1684 22.0142 41.4923 24.0571 43.5352C25.0787 44.5568 26.4202 45.0674 27.762 45.0673C29.1034 45.0673 30.4454 44.5564 31.4667 43.5352C32.4564 42.5455 33.0014 41.2299 33.0014 39.8304C33.0014 38.4308 32.4562 37.115 31.4665 36.1256ZM29.7024 41.7708C28.6323 42.841 26.8913 42.8409 25.8213 41.7708C24.7513 40.7007 24.7513 38.9597 25.8213 37.8896C26.3564 37.3545 27.0592 37.0871 27.762 37.0871C28.4647 37.0871 29.1675 37.3545 29.7026 37.8896C30.221 38.408 30.5064 39.097 30.5064 39.8302C30.5063 40.5634 30.2208 41.2524 29.7024 41.7708Z" fill="white"/>
<path d="M50.2849 36.1255C48.242 34.0824 44.9179 34.0826 42.8754 36.1255C40.8325 38.1684 40.8325 41.4923 42.8754 43.5352C43.8969 44.5567 45.2385 45.0673 46.5803 45.0673C47.9219 45.0673 49.2637 44.5567 50.285 43.5352C52.3278 41.4923 52.3278 38.1684 50.2849 36.1255ZM48.5207 41.7709C47.4505 42.841 45.7096 42.8409 44.6395 41.7709C43.5695 40.7007 43.5695 38.9598 44.6395 37.8896C45.1746 37.3545 45.8774 37.0871 46.5802 37.0871C47.2829 37.0871 47.9857 37.3545 48.5208 37.8896C49.5908 38.9598 49.5908 40.7007 48.5207 41.7709Z" fill="white"/>
</g>
<defs>
<clipPath id="clip0_3590_11815">
<rect width="77" height="77" fill="white"/>
</clipPath>
</defs>
</svg>
