<svg width="70" height="58" viewBox="0 0 70 58" fill="none" xmlns="http://www.w3.org/2000/svg">
<path d="M68.404 44.6423H58.6752V35.5776H68.4038C69.2839 35.5776 69.9999 34.8635 69.9999 33.9858V24.014C69.9999 23.1363 69.2839 22.4222 68.4038 22.4222H58.6751V12.9039C58.6751 12.0262 57.9591 11.3121 57.079 11.3121H47.3552V1.79398C47.3552 0.916249 46.6392 0.202148 45.7591 0.202148H40.4174C39.851 0.202148 39.392 0.660035 39.392 1.22482C39.392 1.78961 39.851 2.2475 40.4174 2.2475H45.3044V11.3122H34.9999H24.7061V2.2475H36.2817C36.8481 2.2475 37.3071 1.78961 37.3071 1.22482C37.3071 0.660035 36.8481 0.202148 36.2817 0.202148H23.6807H23.6801H1.60166C0.7216 0.202148 0.00560546 0.916249 0.00560546 1.79398V12.2277C0.00205078 12.263 0 12.2988 0 12.3349V23.445C0 23.4811 0.00205078 23.5168 0.00574218 23.552V34.4479C0.00205078 34.4831 0 34.5188 0 34.5549V38.1759C0 38.7407 0.459101 39.1986 1.02539 39.1986C1.59168 39.1986 2.05078 38.7407 2.05078 38.1759V35.5776H11.3248V44.6423H2.05078V42.2808C2.05078 41.716 1.59168 41.2581 1.02539 41.2581C0.459101 41.2581 0 41.716 0 42.2808V45.665C0 45.7011 0.00205078 45.7369 0.00574218 45.772V56.2058C0.00574218 57.0835 0.721737 57.7975 1.60179 57.7975H23.6802H23.6809H46.3249H46.3299H68.404C69.284 57.7975 70 57.0834 70 56.2058V46.234C70 45.3563 69.284 44.6423 68.404 44.6423ZM57.6497 24.4675H67.9491V33.5322H57.6497H47.3552V24.4675H57.6497ZM36.0253 13.3576H46.3298H56.6243V22.4223H46.3298H46.3247H36.0253V13.3576ZM45.2994 24.4675V33.5322H35.0006H34.9999H24.7061V24.4675H34.9999H45.2994ZM33.9745 13.3576V22.4223H23.6807H23.6801H13.3756V13.3576H33.9745ZM2.05652 2.2475H22.6548V11.3122H12.3503H2.05652V2.2475ZM2.05078 13.3574H11.3248V22.4222H2.05078V13.3574ZM2.05652 33.5322V24.4675H12.3503H22.6548V33.5322H12.3509H12.3502H2.05652ZM22.6548 55.7523H2.05652V46.6877H12.3503H12.351H22.6548V55.7523ZM23.6807 44.6423H23.6801H13.3763V35.5776H23.6801H23.6807H33.9745V44.6423H23.6807ZM45.2994 55.7523H24.7061V46.6877H34.9999H35.0006H45.2994V55.7523ZM46.3298 44.6423H46.3247H36.0261V35.5776H46.3247H46.3298H56.6243V44.6423H46.3298ZM67.9491 55.7523H47.3552V46.6877H57.6497H67.9491V55.7523Z" fill="white"/>
</svg>
