<svg width="29" height="29" viewBox="0 0 29 29" fill="none" xmlns="http://www.w3.org/2000/svg">
<path d="M28.2108 21.2831L24.1637 17.236C22.7184 15.7907 20.2612 16.3689 19.6831 18.2478C19.2495 19.5487 17.8041 20.2714 16.5033 19.9822C13.6125 19.2596 9.71003 15.5016 8.98734 12.4663C8.55373 11.1654 9.42095 9.72006 10.7218 9.2865C12.6008 8.70836 13.1789 6.25123 11.7335 4.80586L7.68651 0.758819C6.53021 -0.25294 4.79577 -0.25294 3.78401 0.758819L1.03781 3.50502C-1.7084 6.39576 1.32688 14.0562 8.12012 20.8495C14.9134 27.6427 22.5738 30.8226 25.4646 27.9318L28.2108 25.1856C29.2226 24.0293 29.2226 22.2948 28.2108 21.2831Z" fill="#28BD25"/>
</svg>
