<svg width="152" height="152" viewBox="0 0 152 152" fill="none" xmlns="http://www.w3.org/2000/svg">
<g clip-path="url(#clip0_3590_14077)">
<path d="M2.53388 152.294H124.134C125.533 152.294 126.667 151.159 126.667 149.761V126.961H144.4C145.8 126.961 146.934 125.826 146.934 124.428V99.0937C146.934 97.6951 145.8 96.561 144.4 96.561H126.667V73.7606C126.667 72.3609 125.533 71.2268 124.134 71.2268H119.484C119.842 69.5707 119.464 67.8405 118.449 66.4837L107.002 51.2247L112.288 47.2598C114.636 45.5018 115.947 42.6838 115.782 39.7544L115.528 35.1923C115.458 33.9549 116.012 32.7651 117.004 32.0217L122.289 28.058L124.513 31.0221C124.915 31.559 125.515 31.915 126.18 32.0101C126.299 32.0264 126.418 32.0356 126.539 32.0345C127.087 32.0356 127.621 31.8571 128.059 31.5277L148.961 15.8478C152.317 13.3301 152.998 8.56736 150.48 5.21011L149.072 3.33145C146.551 -0.0211664 141.791 -0.699575 138.432 1.81459L117.533 17.4934C116.414 18.333 116.186 19.9217 117.026 21.0408L119.249 24.0049L113.964 27.9698C111.616 29.7279 110.303 32.5447 110.47 35.4741L110.723 40.0362C110.794 41.2736 110.24 42.4646 109.248 43.2068L103.963 47.1717L92.5151 31.9127C91.3172 30.2903 89.3713 29.3962 87.3592 29.5435C85.44 29.6827 83.7248 30.796 82.8145 32.4926L61.9984 71.2268H2.53388C1.13416 71.2268 0 72.3609 0 73.7606V99.0937C0 100.493 1.13416 101.628 2.53388 101.628H20.2664V121.894H2.53388C1.13416 121.894 0 123.028 0 124.428V149.761C0 151.159 1.13416 152.294 2.53388 152.294ZM141.473 5.86649C142.591 5.02689 144.179 5.25302 145.019 6.37211L146.427 8.25077C147.266 9.36986 147.038 10.9563 145.92 11.7959L127.044 25.9566L122.597 20.0261L141.473 5.86649ZM45.6006 126.961H81.0669V147.227H45.6006V126.961ZM65.867 101.628H101.333V121.894H65.867V101.628ZM121.601 147.227H86.1335V126.961H121.601V147.227ZM141.867 121.894H106.4V101.628H141.867V121.894ZM121.601 96.561H86.1335V81.8088L112.064 76.2934H121.601V96.561ZM87.2792 34.8931C87.365 34.7156 87.5436 34.602 87.7408 34.5962L87.7906 34.5939C88.0597 34.5985 88.309 34.7319 88.4621 34.9522L99.908 50.2112L89.4571 58.0517C88.338 58.8913 88.1107 60.4789 88.9503 61.5992C89.7899 62.7183 91.3775 62.9444 92.4977 62.1059L102.949 54.2654L114.396 69.5244C114.578 69.747 114.631 70.0474 114.535 70.3176C114.475 70.5054 114.316 70.6434 114.121 70.6782L63.862 81.3658C63.55 81.4145 63.2369 81.2811 63.0572 81.0214C62.8554 80.7778 62.8148 80.4392 62.9528 80.1539L87.2792 34.8931ZM59.0053 84.062C60.3551 85.9187 62.6721 86.8035 64.9161 86.3211L81.0669 82.8861V96.561H45.6006V76.2934H59.2743L58.4892 77.7546C57.4038 79.7759 57.6067 82.2448 59.0053 84.062ZM5.06661 86.4277H10.1332C11.5329 86.4277 12.6671 85.2936 12.6671 83.8939C12.6671 82.4953 11.5329 81.3611 10.1332 81.3611H5.06661V76.2934H40.534V96.561H5.06661V86.4277ZM25.333 101.628H60.8004V121.894H25.333V101.628ZM5.06661 126.961H40.534V147.227H5.06661V126.961Z" fill="#28BD25"/>
<path d="M32.9337 83.8941C32.9337 82.4955 31.7995 81.3613 30.3998 81.3613H20.2666C18.868 81.3613 17.7339 82.4955 17.7339 83.8941C17.7339 85.2938 18.868 86.4279 20.2666 86.4279H30.3998C31.7995 86.4279 32.9337 85.2938 32.9337 83.8941Z" fill="#28BD25"/>
</g>
<defs>
<clipPath id="clip0_3590_14077">
<rect width="152" height="152" fill="white"/>
</clipPath>
</defs>
</svg>
