<svg width="152" height="152" viewBox="0 0 152 152" fill="none" xmlns="http://www.w3.org/2000/svg">
<path d="M105.688 127.359C104.049 127.359 102.719 128.689 102.719 130.328C102.719 131.967 104.049 133.297 105.688 133.297C107.326 133.297 108.656 131.967 108.656 130.328C108.656 128.689 107.326 127.359 105.688 127.359Z" fill="#28BD25"/>
<path d="M46.3125 127.359C44.6738 127.359 43.3438 128.689 43.3438 130.328C43.3438 131.967 44.6738 133.297 46.3125 133.297C47.9513 133.297 49.2812 131.967 49.2812 130.328C49.2812 128.689 47.9513 127.359 46.3125 127.359Z" fill="#28BD25"/>
<path d="M132.895 111.984C129.553 106.811 124.96 102.701 119.581 100.047C119.127 99.6256 118.544 99.3433 117.895 99.2711C114.004 97.6193 109.902 96.7812 105.688 96.7812H96.7812V88.9488C101.935 84.5266 105.641 78.6692 107.437 72.1406H108.656C115.204 72.1406 120.531 66.8135 120.531 60.2656C120.531 57.1627 119.334 54.3353 117.378 52.2173C117.565 52.0588 117.747 51.8937 117.922 51.7189C119.605 50.0362 120.531 47.7998 120.531 45.4219C120.531 41.5141 118 38.1882 114.492 36.9918C113.443 23.3403 103.862 11.6743 90.6704 8.018C89.8887 3.93537 86.5195 0 81.9375 0H70.0625C65.4805 0 62.1113 3.93537 61.3296 8.018C48.1392 11.674 38.559 23.3379 37.5084 36.9877C36.2312 37.4208 35.06 38.1431 34.078 39.1249C32.3953 40.8075 31.4688 43.0439 31.4688 45.4219C31.4688 48.1421 32.696 50.5801 34.6245 52.215C32.6675 54.3329 31.4688 57.1615 31.4688 60.2656C31.4688 66.8135 36.7959 72.1406 43.3438 72.1406H44.5544C46.0542 77.5904 48.898 82.5936 52.8651 86.7264C53.6106 87.5036 54.4009 88.244 55.2188 88.9464V96.7812H46.3125C42.0975 96.7812 37.9958 97.6193 34.105 99.2708C33.4566 99.3433 32.873 99.6253 32.4196 100.047C27.0394 102.701 22.4473 106.811 19.1054 111.984C15.5405 117.502 13.6562 123.845 13.6562 130.328V149.031C13.6562 150.671 14.9854 152 16.625 152H135.375C137.015 152 138.344 150.671 138.344 149.031V130.328C138.344 123.845 136.459 117.502 132.895 111.984ZM31.4688 146.062H19.5938V130.328C19.5938 121.298 24.2197 112.643 31.4688 107.505V146.062ZM108.656 66.2031H108.521C108.609 65.2154 108.656 64.2242 108.656 63.2344V54.3281C111.93 54.3281 114.594 56.9917 114.594 60.2656C114.594 63.5396 111.93 66.2031 108.656 66.2031ZM61.1562 14.2913V27.6094C61.1562 29.249 62.4854 30.5781 64.125 30.5781C65.7646 30.5781 67.0938 29.249 67.0938 27.6094V10.4093C67.0938 10.4016 67.0938 10.3939 67.0938 10.3862V9.79688C67.0938 7.95744 68.6476 5.9375 70.0625 5.9375H81.9375C83.3524 5.9375 84.9062 7.95744 84.9062 9.79688V10.3862C84.9062 10.3939 84.9062 10.4016 84.9062 10.4093V27.6094C84.9062 29.249 86.2354 30.5781 87.875 30.5781C89.5146 30.5781 90.8438 29.249 90.8438 27.6094V14.2913C100.43 17.6837 107.35 26.3583 108.49 36.5156H43.5097C44.65 26.3583 51.5702 17.6837 61.1562 14.2913ZM43.3438 66.2031C40.0698 66.2031 37.4062 63.5396 37.4062 60.2656C37.4062 56.9917 40.0698 54.3281 43.3438 54.3281V63.2344C43.3438 64.2242 43.3907 65.2157 43.4791 66.2031H43.3438ZM43.3438 48.3906H40.375C38.738 48.3906 37.4062 47.0588 37.4062 45.4219C37.4062 44.6298 37.7153 43.8844 38.2764 43.3236C38.8378 42.7622 39.5829 42.4531 40.375 42.4531H111.625C113.262 42.4531 114.594 43.7849 114.594 45.4219C114.594 46.2139 114.285 46.9594 113.724 47.5202C113.163 48.0816 112.417 48.3906 111.625 48.3906H108.656H105.688H46.3125H43.3438ZM49.8207 68.6325C49.8147 68.6001 49.8091 68.568 49.802 68.5363C49.4573 66.7939 49.2812 65.0106 49.2812 63.2344V54.3281H102.719V63.2344C102.719 65.0091 102.543 66.7912 102.198 68.5351C102.191 68.5671 102.185 68.5995 102.179 68.6319C100.853 75.2542 97.1808 81.1823 91.8341 85.3284C87.1892 88.9366 81.714 90.8438 76 90.8438C70.286 90.8438 64.8108 88.9366 60.1614 85.3251C59.0971 84.5016 58.0842 83.5905 57.1496 82.6159C53.4045 78.7143 50.8716 73.8809 49.8207 68.6325ZM73.0312 146.062H49.2812V139.234C49.2812 137.595 47.9521 136.266 46.3125 136.266C44.6729 136.266 43.3438 137.595 43.3438 139.234V146.062H37.4062V104.344C39.333 103.617 41.3179 103.133 43.3438 102.895V121.422C43.3438 123.062 44.6729 124.391 46.3125 124.391C47.9521 124.391 49.2812 123.062 49.2812 121.422V102.719H56.9154L73.0312 119.641V146.062ZM61.1562 98.5625V93.0329C65.7373 95.4955 70.783 96.7812 76 96.7812C81.2173 96.7812 86.2633 95.4952 90.8438 93.0332V98.5625L76 114.148L61.1562 98.5625ZM114.594 146.062H108.656V139.234C108.656 137.595 107.327 136.266 105.688 136.266C104.048 136.266 102.719 137.595 102.719 139.234V146.062H78.9688V119.641L95.0846 102.719H102.719V121.422C102.719 123.062 104.048 124.391 105.688 124.391C107.327 124.391 108.656 123.062 108.656 121.422V102.895C110.682 103.133 112.667 103.618 114.594 104.344V146.062ZM132.406 146.062H120.531V107.505C127.78 112.643 132.406 121.298 132.406 130.328V146.062Z" fill="#28BD25"/>
</svg>
