<svg width="165" height="154" viewBox="0 0 165 154" fill="none" xmlns="http://www.w3.org/2000/svg">
<g clip-path="url(#clip0_3590_14053)">
<path d="M61.1421 115.569C60.1054 114.729 58.5833 114.887 57.7425 115.924C56.7145 117.19 55.3497 117.888 53.8995 117.888C52.4493 117.888 51.0845 117.19 50.0565 115.924C49.216 114.888 47.6939 114.729 46.6569 115.569C45.6201 116.409 45.4616 117.93 46.3024 118.965C48.2376 121.349 51.0068 122.717 53.8998 122.717C56.7928 122.717 59.5617 121.349 61.4973 118.965C62.3374 117.93 62.1786 116.409 61.1421 115.569Z" fill="#28BD25"/>
<path d="M42.4587 100.743C41.1239 100.743 40.0417 101.824 40.0417 103.158V106.015C40.0417 107.349 41.1239 108.43 42.4587 108.43C43.7936 108.43 44.8758 107.349 44.8758 106.015V103.158C44.8758 101.824 43.7936 100.743 42.4587 100.743Z" fill="#28BD25"/>
<path d="M65.3396 100.743C64.0048 100.743 62.9226 101.824 62.9226 103.158V106.015C62.9226 107.349 64.0048 108.43 65.3396 108.43C66.6744 108.43 67.7566 107.349 67.7566 106.015V103.158C67.7566 101.824 66.6744 100.743 65.3396 100.743Z" fill="#28BD25"/>
<path d="M118.345 118.427C117.308 117.587 115.786 117.745 114.945 118.781C113.917 120.047 112.552 120.745 111.102 120.745C109.652 120.745 108.287 120.047 107.259 118.781C106.418 117.745 104.896 117.587 103.859 118.427C102.823 119.267 102.664 120.788 103.505 121.823C105.44 124.207 108.209 125.574 111.102 125.574C113.995 125.574 116.764 124.207 118.7 121.823C119.54 120.788 119.381 119.267 118.345 118.427Z" fill="#28BD25"/>
<path d="M99.6611 103.601C98.3263 103.601 97.2441 104.681 97.2441 106.015V108.873C97.2441 110.206 98.3263 111.287 99.6611 111.287C100.996 111.287 102.078 110.206 102.078 108.873V106.015C102.078 104.681 100.996 103.601 99.6611 103.601Z" fill="#28BD25"/>
<path d="M122.542 103.601C121.207 103.601 120.125 104.681 120.125 106.015V108.873C120.125 110.206 121.207 111.287 122.542 111.287C123.877 111.287 124.959 110.206 124.959 108.873V106.015C124.959 104.681 123.877 103.601 122.542 103.601Z" fill="#28BD25"/>
<path d="M163.988 58.3307L83.9051 1.18205C83.0646 0.582548 81.936 0.582548 81.0952 1.18205L47.7355 24.9881V14.1343H48.1786C49.5134 14.1343 50.5956 13.0532 50.5956 11.7196C50.5956 10.3857 49.5134 9.30488 48.1786 9.30488H22.4378C21.103 9.30488 20.0208 10.3857 20.0208 11.7196C20.0208 13.0532 21.103 14.1343 22.4378 14.1343H22.881V42.7251L1.01224 58.3307C0.377052 58.784 0 59.5159 0 60.296V74.5831C0 75.4875 0.505959 76.3163 1.31098 76.73C2.116 77.1441 3.08474 77.0735 3.82176 76.5478L8.58036 73.152V147.893C8.58036 149.576 9.35573 151.118 10.7073 152.123C11.6348 152.812 12.7266 153.169 13.842 153.169C14.3522 153.169 14.8675 153.094 15.3737 152.942L36.2164 146.695C39.6849 145.656 42.0152 142.527 42.0152 138.909V134.369C45.6282 136.057 49.6542 137.004 53.8988 137.004C58.1076 137.004 62.1427 136.064 65.7821 134.369V138.908C65.7821 142.526 68.1124 145.655 71.581 146.695C75.5368 147.881 79.6173 148.474 83.7011 148.474C87.4304 148.474 91.1625 147.979 94.8006 146.988L96.0813 146.639C99.6117 145.677 102.077 142.452 102.077 138.796V138.367C104.968 139.345 108.017 139.861 111.101 139.861C114.184 139.861 117.234 139.345 120.124 138.367V138.796C120.124 142.452 122.59 145.677 126.12 146.639L149.754 153.078C150.219 153.205 150.689 153.267 151.156 153.267C152.296 153.267 153.41 152.895 154.346 152.182C155.664 151.176 156.42 149.649 156.42 147.992V73.152L161.178 76.5478C161.596 76.8459 162.088 76.9976 162.583 76.9976C162.961 76.9976 163.341 76.909 163.689 76.7297C164.494 76.3156 165 75.4872 165 74.5828V60.2957C165.001 59.5159 164.624 58.784 163.988 58.3307ZM27.715 14.1343H42.9018V28.4379L27.715 39.2752V14.1343ZM53.8988 132.174C41.0381 132.175 30.5751 121.721 30.5751 108.872C30.5751 107.538 29.4929 106.458 28.1581 106.458C26.3366 106.458 24.8548 104.977 24.8548 103.157C24.8548 101.338 26.3366 99.8573 28.1581 99.8573H31.8168C34.092 99.8573 36.1039 98.4085 36.8232 96.2523L38.4883 91.2619C44.1705 91.1366 62.0783 90.342 72.1407 85.3152C73.3347 84.7186 73.8188 83.2685 73.2216 82.0753C72.6248 80.8824 71.1733 80.3988 69.979 80.9954C59.1859 86.387 36.9614 86.4553 36.7381 86.4553C35.6978 86.4556 34.7742 87.1204 34.4455 88.1063L32.2373 94.7249C32.1767 94.9062 32.0079 95.0276 31.8168 95.0276H28.1581C28.0095 95.0276 27.8619 95.0321 27.715 95.0401V83.1551C27.715 73.4572 35.6121 65.5678 45.3188 65.5678H68.1997C71.2316 65.5678 73.7791 67.7504 74.2571 70.7582C74.3728 71.4858 74.8146 72.1211 75.4569 72.483C78.3105 74.0905 80.083 77.0851 80.083 80.2977V80.9815C78.2458 85.1471 77.2229 89.7483 77.2229 94.5849C77.2229 101.324 76.891 108.429 76.454 114.862C73.7302 125.027 64.4511 132.174 53.8988 132.174ZM72.9702 142.07C71.5623 141.648 70.6164 140.378 70.6164 138.909V131.501C72.4024 130.185 74.0318 128.661 75.4669 126.956C74.8913 133.033 74.3937 137.052 74.3821 137.147C74.2983 137.816 74.4984 138.49 74.9338 139.005C75.0585 139.152 76.229 140.493 78.9177 142.172C79.6963 142.658 80.5226 143.123 81.3904 143.568C78.5503 143.391 75.7256 142.896 72.9702 142.07ZM97.244 138.796C97.244 140.28 96.2431 141.589 94.81 141.98L93.5293 142.329C93.1967 142.419 92.8625 142.502 92.5283 142.583C84.7504 140.52 80.7968 137.762 79.3237 136.529C79.7008 133.291 80.7295 123.969 81.4117 113.115C81.918 113.397 82.4542 113.632 83.0192 113.801C83.1223 115.211 83.3302 116.61 83.6415 117.979C85.0314 124.098 88.5013 129.653 93.4123 133.618C94.6185 134.592 95.9021 135.458 97.244 136.215V138.796ZM111.102 135.032C105.705 135.032 100.639 133.244 96.4513 129.862C92.3814 126.576 89.5064 121.976 88.3556 116.91C87.9721 115.222 87.7775 113.479 87.7775 111.729C87.7775 110.396 86.6953 109.315 85.3604 109.315C83.539 109.315 82.0572 107.834 82.0572 106.015C82.0572 104.195 83.539 102.714 85.3604 102.714C92.6898 102.714 98.0059 96.0839 100.406 92.3739C106.043 95.9999 112.49 97.2787 118.259 98.423C128.882 100.53 134.426 102.079 134.426 111.729C134.426 113.479 134.231 115.222 133.847 116.911C132.697 121.976 129.822 126.576 125.752 129.862C121.564 133.244 116.498 135.032 111.102 135.032ZM127.392 141.98C125.96 141.59 124.959 140.28 124.959 138.796V136.215C126.301 135.458 127.585 134.592 128.791 133.618C133.702 129.653 137.172 124.098 138.562 117.979C139.025 115.941 139.26 113.838 139.26 111.73C139.26 97.6648 129.062 95.6422 119.201 93.6862C112.894 92.4354 106.373 91.1421 101.171 86.9849C100.602 86.53 99.857 86.3577 99.1451 86.5126C98.4332 86.6678 97.8286 87.1369 97.5006 87.7872C97.487 87.8139 96.1329 90.4772 93.8425 93.0707C91.9028 95.2671 88.8564 97.8856 85.3601 97.8856C84.1703 97.8856 83.0401 98.1442 82.0205 98.6046C82.044 97.2562 82.0569 95.9139 82.0569 94.5852C82.0569 78.5852 95.0861 65.5681 111.101 65.5681C127.116 65.5681 140.145 78.5852 140.145 94.5852C140.145 111.881 142.294 131.503 142.879 136.527C141.389 137.774 137.427 140.532 129.64 142.593L127.392 141.98ZM160.167 69.8905L146.821 60.3668C145.735 59.5918 144.225 59.8433 143.449 60.9283C142.673 62.0137 142.925 63.5217 144.011 64.2967L151.587 69.7025V147.992C151.587 148.173 151.492 148.284 151.412 148.344C151.333 148.405 151.202 148.467 151.027 148.42L137.99 144.867C144.598 142.085 147.133 139.166 147.27 139.005C147.705 138.49 147.905 137.816 147.821 137.147C147.793 136.92 144.98 114.2 144.98 94.5849C144.98 75.9219 129.782 60.7384 111.102 60.7384C99.8544 60.7384 89.8715 66.2439 83.7063 74.6974C82.6576 72.3703 80.9692 70.3377 78.7917 68.8689C77.5203 64.0945 73.2339 60.7384 68.1997 60.7384H45.3188C32.9463 60.7384 22.881 70.7943 22.881 83.1551V96.9764C21.1323 98.4687 20.0208 100.685 20.0208 103.157C20.0208 106.827 22.4675 109.937 25.8165 110.944C26.4323 119.354 30.7697 126.744 37.1815 131.487V138.909C37.1815 140.378 36.2354 141.648 34.8274 142.07L13.9848 148.317C13.8091 148.37 13.6744 148.309 13.5929 148.248C13.5114 148.188 13.4144 148.077 13.4144 147.893V69.7025L82.5003 20.4017L135.428 58.1717C136.514 58.9466 138.024 58.6952 138.799 57.6102C139.575 56.5251 139.324 55.0167 138.237 54.2418L83.9051 15.4692C83.0646 14.8697 81.936 14.8697 81.0952 15.4692L4.834 69.8905V61.5384L82.5003 6.11454L160.167 61.5384V69.8905Z" fill="#28BD25"/>
</g>
<defs>
<clipPath id="clip0_3590_14053">
<rect width="165" height="154" fill="white"/>
</clipPath>
</defs>
</svg>
