<svg width="143" height="143" viewBox="0 0 143 143" fill="none" xmlns="http://www.w3.org/2000/svg">
<path d="M135.85 28.5999H104.867V19.0666C104.859 12.488 99.5286 7.15805 92.95 7.1499H50.05C43.4714 7.15805 38.1415 12.488 38.1333 19.0666V28.5999H7.15C3.20144 28.5999 0 31.8013 0 35.7499V88.8023C0.0151286 91.8257 1.92017 94.5151 4.76667 95.5311V128.7C4.76667 132.648 7.96811 135.85 11.9167 135.85H131.083C135.032 135.85 138.233 132.648 138.233 128.7V95.5334C141.08 94.5163 142.986 91.8257 143 88.8023V35.7499C143 31.8013 139.799 28.5999 135.85 28.5999ZM42.9 19.0666C42.9 15.118 46.1014 11.9166 50.05 11.9166H92.95C96.8986 11.9166 100.1 15.118 100.1 19.0666V28.5999H95.3333V19.0666C95.3333 17.7504 94.2662 16.6832 92.95 16.6832H50.05C48.7338 16.6832 47.6667 17.7504 47.6667 19.0666V28.5999H42.9V19.0666ZM90.5667 28.5999H52.4333V21.4499H90.5667V28.5999ZM133.467 128.7C133.467 130.016 132.4 131.083 131.083 131.083H11.9167C10.6005 131.083 9.53333 130.016 9.53333 128.7V96.3503L61.9667 103.582V109.633C61.9667 113.582 65.1681 116.783 69.1167 116.783H73.8833C77.8319 116.783 81.0333 113.582 81.0333 109.633V103.582L133.467 96.3503V128.7ZM76.2667 109.633C76.2667 110.949 75.1995 112.017 73.8833 112.017H69.1167C67.8005 112.017 66.7333 110.949 66.7333 109.633V95.3332C66.7333 94.017 67.8005 92.9499 69.1167 92.9499H73.8833C75.1995 92.9499 76.2667 94.017 76.2667 95.3332V109.633ZM138.233 88.8023C138.234 89.9905 137.361 90.9983 136.184 91.1647L135.523 91.2555L81.0333 98.7697V95.3332C81.0333 91.3847 77.8319 88.1832 73.8833 88.1832H69.1167C65.1681 88.1832 61.9667 91.3847 61.9667 95.3332V98.7697L6.81834 91.1647C5.6418 90.9995 4.7655 89.9917 4.76667 88.8023V35.7499C4.76667 34.4337 5.83381 33.3666 7.15 33.3666H135.85C137.166 33.3666 138.233 34.4337 138.233 35.7499V88.8023Z" fill="#28BD25"/>
</svg>
