<svg width="83" height="83" viewBox="0 0 83 83" fill="none" xmlns="http://www.w3.org/2000/svg">
<circle cx="41.5" cy="41.5" r="41.5" fill="#28BD25"/>
<g clip-path="url(#clip0_1_25)" filter="url(#filter0_d_1_25)">
<path d="M66.4286 55.0399C64.2643 52.0192 61.7333 49.2773 58.8935 46.8767V44.465L70.1161 35.7606C70.275 35.6373 70.3913 35.4676 70.4488 35.2752C70.5064 35.0827 70.5021 34.8772 70.4368 34.6872C70.3714 34.4973 70.2482 34.3325 70.0843 34.2158C69.9205 34.0991 69.7241 34.0364 69.5228 34.0364H48.9577L42.4155 14.7178C42.3508 14.5268 42.2277 14.3608 42.0635 14.2433C41.8992 14.1257 41.7022 14.0625 41.5 14.0625C41.2978 14.0625 41.1008 14.1257 40.9365 14.2433C40.7723 14.3608 40.6492 14.5268 40.5845 14.7178L34.0423 34.0364H13.4772C13.2759 34.0364 13.0795 34.0991 12.9157 34.2158C12.7518 34.3325 12.6286 34.4973 12.5632 34.6872C12.4979 34.8772 12.4937 35.0827 12.5512 35.2752C12.6087 35.4676 12.725 35.6373 12.884 35.7606L24.1066 44.465V46.877C21.2668 49.2775 18.7358 52.0193 16.5714 55.0398L12.6909 60.4573C12.5877 60.6013 12.5263 60.771 12.5135 60.9476C12.5006 61.1242 12.5368 61.3009 12.618 61.4583C12.6993 61.6157 12.8224 61.7478 12.974 61.84C13.1256 61.9322 13.2997 61.981 13.4772 61.981H18.3087V67.7627C18.3087 67.9798 18.3822 68.1905 18.5173 68.3607C18.6523 68.531 18.8411 68.6507 19.053 68.7006C19.2648 68.7505 19.4874 68.7276 19.6846 68.6356C19.8817 68.5435 20.042 68.3878 20.1393 68.1937C21.5469 65.3935 23.4498 62.8696 25.7564 60.7435L23.1899 68.4215C23.1252 68.6149 23.1237 68.8238 23.1857 69.0181C23.2476 69.2124 23.3697 69.3821 23.5345 69.5028C23.6993 69.6236 23.8982 69.689 24.1027 69.6898C24.3071 69.6907 24.5066 69.6268 24.6723 69.5074L41.5 57.388L58.3277 69.5074C58.4934 69.6268 58.6929 69.6907 58.8973 69.6898C59.1018 69.689 59.3007 69.6236 59.4655 69.5028C59.6303 69.3821 59.7524 69.2124 59.8144 69.0181C59.8763 68.8238 59.8748 68.6149 59.8102 68.4215L57.2437 60.7434C59.5503 62.8696 61.4531 65.3935 62.8607 68.1937C62.9581 68.3878 63.1183 68.5435 63.3155 68.6355C63.5126 68.7275 63.7352 68.7504 63.947 68.7005C64.1589 68.6506 64.3476 68.5309 64.4827 68.3607C64.6178 68.1904 64.6913 67.9797 64.6913 67.7627V61.981H69.5228C69.7003 61.981 69.8744 61.9322 70.026 61.84C70.1776 61.7478 70.3007 61.6157 70.382 61.4583C70.4632 61.3009 70.4994 61.1242 70.4865 60.9476C70.4737 60.771 70.4123 60.6013 70.3091 60.4573L66.4286 55.0399ZM27.4464 55.6875C27.2076 55.5344 26.9713 55.3774 26.7373 55.2165C27.102 54.9652 27.4716 54.7235 27.8461 54.4916L27.4464 55.6875ZM26.0392 53.3585V44.1407L26.5514 43.7812C30.9275 40.7093 36.1484 39.0605 41.5 39.0605C46.8515 39.0605 52.0725 40.7092 56.4486 43.781L56.9609 44.1407V53.3585C52.3808 50.3185 47.0018 48.6966 41.5 48.6966C35.9982 48.6966 30.6192 50.3185 26.0392 53.3585V53.3585ZM55.1538 54.4915C55.5196 54.7174 55.8805 54.9531 56.2366 55.1985C56.0082 55.356 55.7774 55.5098 55.5444 55.6598L55.1538 54.4915ZM34.7359 35.9636C34.9381 35.9636 35.1351 35.9004 35.2994 35.7828C35.4636 35.6653 35.5867 35.4993 35.6514 35.3083L41.5 18.0378L47.3486 35.3083C47.4133 35.4993 47.5364 35.6653 47.7007 35.7828C47.8649 35.9004 48.062 35.9636 48.2641 35.9636H66.7064L58.1374 42.6099L57.5611 42.2052C52.8593 38.9047 47.2498 37.1333 41.5 37.1333C35.7501 37.1333 30.1406 38.9048 25.4389 42.2053L24.8626 42.6099L16.2936 35.9636H34.7359ZM20.2413 64.2098V61.0174C20.2413 60.7618 20.1395 60.5168 19.9583 60.336C19.7771 60.1553 19.5313 60.0538 19.275 60.0538H15.3549L18.144 56.16C19.8917 53.7205 21.89 51.4696 24.1066 49.444V55.204C24.1068 55.3517 24.1411 55.4973 24.2068 55.6296C24.2726 55.7619 24.3679 55.8773 24.4856 55.967L24.4845 55.9683C25.1861 56.5054 25.9175 57.0116 26.6673 57.4804C24.1643 59.3508 21.9924 61.6253 20.2413 64.2098V64.2098ZM42.0658 55.4182C41.9011 55.2996 41.7031 55.2358 41.5 55.2358C41.2969 55.2358 41.0989 55.2996 40.9342 55.4182L25.9714 66.1946L30.3368 53.1349C33.8247 51.4816 37.6381 50.6238 41.5 50.6238C45.3619 50.6238 49.1753 51.4816 52.6632 53.1348L57.0286 66.1946L42.0658 55.4182ZM63.725 60.0538C63.4687 60.0538 63.2229 60.1553 63.0417 60.336C62.8605 60.5168 62.7587 60.7618 62.7587 61.0174V64.2098C61.002 61.6171 58.8217 59.3364 56.3086 57.4628C56.9908 57.0351 57.6569 56.5759 58.2993 56.0916C58.3238 56.0814 58.3484 56.0716 58.3723 56.0593C58.5294 55.978 58.661 55.8552 58.7529 55.7044C58.8449 55.5536 58.8935 55.3805 58.8935 55.204V49.4444C61.11 51.4699 63.1083 53.7206 64.856 56.1601L67.6451 60.0538H63.725Z" fill="white"/>
</g>
<defs>
<filter id="filter0_d_1_25" x="8" y="14" width="67" height="64" filterUnits="userSpaceOnUse" color-interpolation-filters="sRGB">
<feFlood flood-opacity="0" result="BackgroundImageFix"/>
<feColorMatrix in="SourceAlpha" type="matrix" values="0 0 0 0 0 0 0 0 0 0 0 0 0 0 0 0 0 0 127 0" result="hardAlpha"/>
<feOffset dy="4"/>
<feGaussianBlur stdDeviation="2"/>
<feComposite in2="hardAlpha" operator="out"/>
<feColorMatrix type="matrix" values="0 0 0 0 0 0 0 0 0 0 0 0 0 0 0 0 0 0 0.25 0"/>
<feBlend mode="normal" in2="BackgroundImageFix" result="effect1_dropShadow_1_25"/>
<feBlend mode="normal" in="SourceGraphic" in2="effect1_dropShadow_1_25" result="shape"/>
</filter>
<clipPath id="clip0_1_25">
<rect width="59" height="56" fill="white" transform="translate(12 14)"/>
</clipPath>
</defs>
</svg>
