<svg width="83" height="83" viewBox="0 0 83 83" fill="none" xmlns="http://www.w3.org/2000/svg">
<circle cx="41.5" cy="41.5" r="41.5" fill="#28BD25"/>
<g clip-path="url(#clip0_1_6)">
<path d="M69.9068 41.5807C69.8138 36.0831 68.1363 30.6789 64.9684 26.2063C59.9366 18.8451 51.7373 14.3729 42.8854 14.0931C42.6056 14.0931 42.3262 14.0931 41.9534 14.0931H38.2263C37.2014 14.0931 36.3628 14.9316 36.3628 15.9566V20.4293C34.3129 20.9884 32.3559 21.7336 30.5858 22.852L27.5109 19.6837C27.1381 19.3113 26.6724 19.1249 26.2062 19.1249C25.7404 19.1249 25.1812 19.3113 24.9018 19.6837L19.5906 24.9019C19.2178 25.2747 19.0314 25.7405 19.0314 26.2063C19.0314 26.672 19.2178 27.1382 19.5906 27.511L22.7589 30.6789C21.6405 32.4494 20.8954 34.406 20.3362 36.4559H15.8635C14.8386 36.4559 14 37.2945 14 38.3194V45.7736C14 46.7985 14.8386 47.6371 15.8635 47.6371H20.3362C20.802 49.687 21.6405 51.644 22.7589 53.4145L19.5906 56.489C19.2178 56.8618 19.0314 57.328 19.0314 57.7937C19.0314 58.2595 19.2178 58.7253 19.5906 59.0981L24.8088 64.3163C25.1812 64.6887 25.6474 64.8751 26.1132 64.8751C26.5789 64.8751 27.0447 64.6887 27.4175 64.3163L30.5858 61.148C32.3559 62.173 34.3129 63.0115 36.3628 63.4773V68.1364C36.3628 69.1613 37.2014 69.9999 38.2263 69.9999H41.9534H42.8854C46.1463 69.9069 49.4075 69.2547 52.4824 67.95C57.5143 65.9 61.8935 62.3594 65.0614 57.8867C68.3227 53.2281 69.9998 47.7305 69.9998 42.0465C69.9068 41.8601 69.9068 41.6737 69.9068 41.5807V41.5807ZM41.0214 49.7804L34.4993 46.1463V37.9466L41.0214 35.0581V49.7804ZM41.0214 33.0082L33.1945 36.4559C32.8221 36.6423 32.6357 37.0151 32.6357 37.3879V46.7055C32.6357 47.0783 32.8221 47.3577 33.1015 47.5441L41.0214 51.9233V56.0232C33.6607 55.5574 27.9767 49.4076 27.9767 42.0465C27.9767 34.6853 33.6607 28.629 41.0214 28.1632V33.0082ZM41.0214 26.2997C32.6357 26.7654 26.1132 33.7538 26.1132 42.0465C26.1132 50.4326 32.6357 57.328 41.0214 57.8867V68.1364H38.2263V62.9186C38.2263 62.4528 37.947 62.08 37.4808 61.9866C35.1515 61.5208 32.9151 60.5888 30.9586 59.2845C30.5858 59.0051 30.1196 59.0981 29.7473 59.3779L26.1132 63.105L20.8954 57.8867L24.529 54.2531C24.8088 53.9733 24.9018 53.5075 24.6224 53.1347C23.3177 51.0848 22.4791 48.9419 21.9203 46.6121C21.8269 46.0534 21.4541 45.7736 21.0813 45.7736H15.8635V38.3194H21.0813C21.5475 38.3194 21.9203 38.04 22.0133 37.5738C22.4791 35.2445 23.4111 33.0082 24.7154 31.0517C24.9948 30.6789 24.9018 30.2131 24.6224 29.9333L20.8954 26.2063L26.1132 20.9884L29.7473 24.6221C30.0266 24.9019 30.4924 24.9949 30.9586 24.7155C32.9151 23.4112 35.1515 22.4792 37.4808 22.0134C37.947 21.92 38.2263 21.5472 38.2263 21.1748V15.9566H41.0214V26.2997ZM67.9499 40.6487H56.8621C56.7687 37.0151 56.3029 33.381 55.4643 29.9333C58.3528 29.5605 61.1479 28.8154 63.8504 27.8834C66.3662 31.7039 67.7639 36.0831 67.9499 40.6487ZM62.7321 26.2997C60.2164 27.1382 57.5143 27.697 54.9052 28.1632C53.321 23.1314 51.0847 19.2179 48.3826 16.8886C54.0666 18.1929 59.098 21.5472 62.7321 26.2997ZM42.8854 16.05C46.9848 16.6088 50.8053 21.2678 53.0416 28.3496C49.6873 28.722 46.2397 29.0018 42.8854 29.0018V16.05ZM42.8854 30.8653C46.4261 30.8653 49.9667 30.5855 53.5074 30.1197C54.346 33.5674 54.9052 37.1081 54.9052 40.6487H42.8854V30.8653ZM42.8854 42.5123H54.9981C54.9981 46.3327 54.5324 50.2462 53.5074 53.9733C49.9667 53.5075 46.4261 53.2281 42.8854 53.2281V42.5123ZM42.8854 68.0434V55.0916C46.2397 55.0916 49.6873 55.371 53.0416 55.7438C50.8053 62.9186 46.9848 67.4842 42.8854 68.0434V68.0434ZM62.7321 57.7937C61.5207 59.3779 59.6572 61.4278 56.8621 63.3843C53.6008 65.7136 50.4325 66.7386 48.2896 67.2978C49.6873 65.8071 51.4575 63.6637 52.8552 60.8686C53.0416 60.4029 53.228 60.0301 53.5074 59.5639C53.5074 59.5639 53.5074 59.4709 53.6008 59.4709C54.0666 58.3529 54.4394 57.2346 54.8122 56.0232C55.4643 56.1166 56.1165 56.2096 56.7687 56.303C57.4209 56.396 58.073 56.5824 58.7256 56.6754C60.2164 57.0482 61.5207 57.421 62.7321 57.7937ZM63.8504 56.2096C61.1479 55.278 58.2594 54.6254 55.4643 54.1597C56.3959 50.3396 56.8621 46.4262 56.9551 42.4193H68.1363C67.9499 47.3577 66.4591 52.1097 63.8504 56.2096Z" fill="white"/>
</g>
<defs>
<clipPath id="clip0_1_6">
<rect width="56" height="56" fill="white" transform="translate(14 14)"/>
</clipPath>
</defs>
</svg>
