<svg width="83" height="83" viewBox="0 0 83 83" fill="none" xmlns="http://www.w3.org/2000/svg">
<circle cx="41.5" cy="41.5" r="41.5" fill="#28BD25"/>
<path d="M68.7656 25.9802C68.7403 25.9636 68.7122 25.9554 68.6859 25.9415C68.665 25.9266 68.6427 25.9137 68.6194 25.9028L42.3694 13.9184C42.2537 13.8696 42.1292 13.8444 42.0033 13.8444C41.8774 13.8444 41.7529 13.8696 41.6372 13.9184H41.6306L15.3806 25.9028C15.3566 25.914 15.3337 25.9272 15.3122 25.9424C15.2869 25.9563 15.2588 25.9646 15.2344 25.9802C15.1048 26.0642 14.9983 26.1785 14.9247 26.3128C14.8511 26.4472 14.8125 26.5974 14.8125 26.75V57.1719C14.8125 57.3523 14.8664 57.5287 14.9673 57.6793C15.0683 57.8299 15.212 57.948 15.3806 58.0191L41.6306 69.0816C41.7473 69.1308 41.873 69.1562 42 69.1563C42.1239 69.1535 42.2461 69.1262 42.3591 69.0761L42.3694 69.0816L68.6194 58.0191C68.788 57.948 68.9317 57.8299 69.0327 57.6793C69.1336 57.5287 69.1875 57.3523 69.1875 57.1719V26.75C69.1875 26.5974 69.1489 26.4472 69.0753 26.3128C69.0017 26.1785 68.8952 26.0642 68.7656 25.9802V25.9802ZM42 15.7797L65.9513 26.7159L59.1872 29.5663L34.2881 19.3022L42 15.7797ZM54.1875 33.6788L57.9375 32.0969V39.0847L54.1875 40.9284V33.6788ZM53.0878 32.1365L28.4362 21.9738L31.9866 20.3531L56.7891 30.5767L53.0878 32.1365ZM41.0625 66.8359L16.6875 56.5644V28.1485L41.0625 38.42V66.8359ZM42 36.8095L18.0488 26.7159L26.1347 23.0284L50.6897 33.1478L42 36.8095ZM67.3125 56.5644L42.9375 66.8359V38.42L52.3125 34.4698V42.4219C52.3116 42.5794 52.3518 42.7346 52.4293 42.8725C52.5067 43.0104 52.6188 43.1265 52.7548 43.2097C52.8909 43.2929 53.0464 43.3405 53.2064 43.3478C53.3665 43.3551 53.5257 43.322 53.6691 43.2516L59.8125 40.226V31.3087L67.3125 28.1485V56.5644Z" fill="white"/>
</svg>
