<svg width="83" height="83" viewBox="0 0 83 83" fill="none" xmlns="http://www.w3.org/2000/svg">
<circle cx="41.5" cy="41.5" r="41.5" fill="#28BD25"/>
<g clip-path="url(#clip0_1_15)">
<path d="M62.2057 25.3383L41.1585 14.1233C40.8462 13.9566 40.472 13.959 40.1621 14.1291L19.6972 25.3442C19.3616 25.5284 19.1534 25.8804 19.1534 26.2634V40.9131C19.1657 52.9556 26.3005 63.8502 37.3343 68.6748L40.1749 69.9127C40.4404 70.0284 40.7427 70.029 41.0088 69.9138L44.2096 68.5315C55.448 63.8116 62.7594 52.8117 62.7606 40.6225V26.2634C62.7606 25.8763 62.5472 25.5202 62.2057 25.3383V25.3383ZM60.665 40.6225C60.6626 51.9715 53.8535 62.2118 43.3892 66.6037L43.3822 66.6072L40.5948 67.8106L38.1728 66.754C27.9021 62.2633 21.2602 52.1229 21.2485 40.9131V26.8838L40.6726 16.2382L60.665 26.8914V40.6225Z" fill="white"/>
<path d="M32.9419 40.2338C32.5659 39.7935 31.9046 39.7415 31.4643 40.1175C31.024 40.4928 30.9719 41.1548 31.3479 41.5945L36.8829 48.0762C37.2525 48.5089 37.8998 48.5679 38.3407 48.2089L51.2315 37.7212C51.6806 37.3564 51.7484 36.6962 51.383 36.2471C51.0181 35.7987 50.358 35.7302 49.9089 36.0957L37.8121 45.9367L32.9419 40.2338Z" fill="white"/>
</g>
<defs>
<clipPath id="clip0_1_15">
<rect width="56" height="56" fill="white" transform="translate(13 14)"/>
</clipPath>
</defs>
</svg>
