<svg width="18" height="16" viewBox="0 0 18 16" fill="none" xmlns="http://www.w3.org/2000/svg">
<path d="M17.7123 7.30045L11.2119 0.799863C11.0263 0.614304 10.779 0.512451 10.5153 0.512451C10.2513 0.512451 10.0041 0.61445 9.81855 0.799863L9.22836 1.3902C9.04294 1.57547 8.9408 1.82293 8.9408 2.08678C8.9408 2.35048 9.04294 2.60629 9.22836 2.79155L13.0206 6.59216H0.97243C0.429216 6.59216 0 7.01742 0 7.56078V8.39536C0 8.93872 0.429216 9.40687 0.97243 9.40687H13.0636L9.2285 13.2287C9.04309 13.4142 8.94094 13.655 8.94094 13.9188C8.94094 14.1824 9.04309 14.4266 9.2285 14.612L9.81869 15.2005C10.0043 15.386 10.2514 15.4872 10.5154 15.4872C10.7791 15.4872 11.0264 15.3847 11.212 15.1992L17.7124 8.69873C17.8984 8.51258 18.0007 8.2641 18 7.99995C18.0006 7.73493 17.8984 7.4863 17.7123 7.30045Z" fill="white"/>
</svg>
