<svg width="289" height="69" viewBox="0 0 289 69" fill="none" xmlns="http://www.w3.org/2000/svg">
<path fill-rule="evenodd" clip-rule="evenodd" d="M2.60495 1H65.3536C66.8093 1 67.9585 2.13333 67.9585 3.56889V63.2578C67.9585 64.6933 66.8093 65.8267 65.3536 65.8267H2.60495C1.14924 65.8267 0 64.6933 0 63.2578V3.56889C0 2.13333 1.14924 1 2.60495 1Z" fill="#28BD25"/>
<path fill-rule="evenodd" clip-rule="evenodd" d="M55.7 6.13781C56.0831 9.00892 55.2403 12.4845 53.5547 14.5245C52.8652 15.3556 51.9458 15.4311 50.9498 15.96C51.3329 17.3956 51.7926 17.5467 52.0224 19.6623C52.099 20.6445 52.7886 22.76 53.3249 23.5156C56.0064 23.44 56.8492 21.8534 57.3089 19.8889C57.2323 19.8134 57.1557 19.8134 57.0791 19.8134C57.0025 19.8134 57.0025 19.7378 56.9258 19.7378C56.6194 19.5867 56.1597 19.4356 55.8532 19.2089C55.5467 18.9823 55.4701 18.7556 55.4701 18.4534C55.4701 18.1511 55.6234 17.8489 55.9298 17.6223C56.2363 17.3956 56.696 17.32 57.0791 17.4711C57.3855 17.5467 57.5388 17.8489 57.692 18.1511C57.8452 18.4534 57.9219 18.8311 58.0751 19.1334C58.1517 19.2845 58.2283 19.5111 58.3049 19.5867C58.6114 19.7378 58.9945 19.8134 59.8372 19.6623C59.8372 19.5867 59.9139 19.5867 59.9905 19.5111C59.9905 19.4356 60.0671 19.2089 60.0671 18.9823C60.0671 18.7556 59.9905 18.5289 59.9905 18.2267C59.9905 18 59.9905 17.7734 60.0671 17.5467C60.1437 17.3956 60.2203 17.1689 60.2969 17.0934C60.3736 17.0178 60.5268 16.9423 60.68 16.8667C60.8333 16.8667 61.0631 16.8667 61.2163 16.8667C61.3696 16.9423 61.5228 17.0178 61.676 17.1689C61.8293 17.32 61.9825 17.5467 62.0591 17.7734C62.1357 18 62.2123 18.3023 62.2123 18.6045C62.2123 18.9067 62.1357 19.1334 61.9059 19.4356C61.676 19.6623 61.293 19.8889 60.9099 19.9645L61.3696 21.7023C62.672 21.7778 64.3576 20.8711 64.1278 22.6089C63.7447 23.2889 62.8253 22.9111 62.7487 22.8356C62.0591 22.6845 62.3656 22.4578 61.3696 22.5334C61.4462 24.3467 63.0551 23.2889 63.4382 24.3467C63.5148 24.4223 63.5148 24.4978 63.5148 24.6489C63.5914 24.8 63.5914 24.9511 63.5148 25.1023C63.4382 25.2534 63.3616 25.2534 63.2084 25.2534C63.0551 25.2534 62.8253 25.2534 62.6721 25.1778C62.5954 25.1778 62.5188 25.1023 62.4422 25.1023C61.293 24.7245 61.9825 23.0623 60.1437 23.8934C59.6074 25.2534 60.9099 24.8756 60.68 26.6889C58.0751 26.84 59.9139 24.6489 58.7646 24.12C56.8492 23.8178 54.9338 27.3689 52.9418 27.4445C51.5627 27.4445 51.2562 26.3111 50.6433 24.9511C50.0304 23.5911 49.8005 22.3067 48.8811 21.7778C47.2722 24.6489 49.0344 28.8045 44.8971 33.1867C43.9777 34.1689 42.522 34.8489 41.6026 35.68C51.2562 39.1556 43.9011 43.9156 43.5946 45.2756C45.127 45.2756 46.3528 42.6311 46.6593 45.5778L44.4374 46.1067C45.0503 47.1645 44.8971 46.6356 45.9697 47.0134C47.8851 47.6934 46.6593 50.0356 45.0503 48.6C44.4374 48.0711 44.5906 47.92 43.8245 47.5423C44.2076 48.2223 46.5827 50.2623 44.7439 50.5645C42.9051 50.8667 44.2842 47.92 42.1389 47.4667C41.7559 48.8267 42.3688 49.2045 41.6026 50.1867C38.7678 50.1867 41.3728 47.6934 40.6832 45.8045C39.0743 45.5778 37.1589 47.24 37.3887 44.7467C37.6952 44.5956 43.1349 44.7467 43.3648 40.6667C42.5986 39.9867 39.3808 38.7023 37.925 39.08C35.6266 39.6845 34.937 41.6489 33.941 42.7823C31.1062 46.0311 28.4246 46.7111 23.6744 48.6756C17.4685 51.1689 13.1014 53.1334 9.88354 58.6489C9.11738 60.0089 7.66168 61.52 5.20996 62.0489C5.74627 61.2178 8.12137 59.4045 8.81092 58.4223C11.8756 54.04 11.8756 51.6978 19.6904 47.6934C25.36 44.7467 33.6345 41.9511 31.5659 34.6978C31.1828 33.4134 30.8764 33.1867 29.6505 32.8845C27.1988 35.1511 30.4167 35.7556 29.1908 37.1911C28.6545 37.8711 27.6585 37.2667 27.5053 36.5867C27.352 36.0578 28.0416 32.5823 25.7431 34.5467C24.8237 35.3778 25.7431 35.0756 24.5938 35.68C23.7511 35.5289 22.7551 34.9245 23.1381 34.0934C23.5978 33.0356 24.364 33.9423 25.36 32.7334C24.1341 32.6578 22.2187 33.4134 22.372 31.9023C22.5252 30.6178 23.9809 31.5245 25.36 31.5245C24.4406 29.4089 23.2914 30.9956 23.8277 29.1067C24.2108 28.5023 24.9003 28.3511 25.5132 29.2578C25.6665 29.4845 26.0495 30.6178 26.2794 30.9956C26.9689 30.1645 26.8157 31.1467 26.2794 29.9378C25.8963 29.1067 25.5132 29.7867 25.9729 28.5023C27.352 27.8978 27.2754 28.88 27.8117 29.8623L28.0416 30.24C28.4246 28.4267 29.1908 26.9156 30.1868 25.8578C33.0982 25.48 33.7112 28.7289 35.0902 30.7689C35.7798 28.5023 34.0942 26.9911 37.3121 23.1378C38.9977 21.0978 42.2922 19.9645 42.9817 17.6223C41.1429 18 40.2235 18.6045 38.4614 18C37.3121 15.2045 39.0743 14.6 38.9977 12.4089C37.8484 11.7289 36.6992 12.1067 36.8524 10.8223C37.2355 9.99115 38.4614 10.8978 39.1509 11.2C38.9977 10.3689 37.6186 9.31115 38.0017 8.7067C38.0017 8.63115 38.0783 8.55559 38.0783 8.55559C38.1549 8.48004 38.2315 8.40448 38.3847 8.32892C38.4614 8.25337 38.6146 8.25337 38.7678 8.17781C38.9211 8.17781 39.0743 8.10226 39.1509 8.17781C39.2275 8.17781 39.3041 8.25337 39.3808 8.25337C40.2235 9.61337 38.8444 10.3689 40.53 10.52C40.8365 9.76448 40.6066 9.53781 40.6832 9.23559C40.6832 9.16004 40.6832 9.08448 40.7598 8.93337C40.7598 8.85781 40.8365 8.7067 40.9131 8.63115C40.9897 8.55559 41.1429 8.48004 41.2962 8.40448C41.4494 8.40448 41.6026 8.40448 41.7559 8.48004C41.9091 8.55559 42.0623 8.63115 42.2155 8.7067C42.2922 8.85781 42.3688 9.00892 42.3688 9.16004C42.3688 9.23559 42.3688 9.31115 42.3688 9.3867C42.2922 10.0667 41.2195 10.7467 41.8325 11.2C42.7519 11.4267 42.3688 10.6711 43.0583 10.52C43.1349 10.52 43.2116 10.4445 43.2882 10.4445C43.4414 10.4445 43.5946 10.4445 43.7479 10.52C43.9011 10.5956 43.9777 10.6711 43.9777 10.7467C44.0543 10.8223 44.0543 10.9734 44.0543 11.1245C44.0543 11.2 44.0543 11.2 43.9777 11.2756C43.9777 11.5023 43.5946 11.6534 42.522 12.1067L42.0623 12.3334C42.9051 14.0711 42.8285 11.9556 43.8245 13.8445C41.9857 14.9778 41.1429 11.2756 40.3001 15.8089C42.6752 15.8845 42.0623 14.9778 45.7399 13.4667L46.5061 13.0889C46.2762 11.6534 44.5906 9.68892 49.111 6.59115C50.6433 5.23115 55.1637 2.36004 55.7 6.13781Z" fill="white"/>
<path fill-rule="evenodd" clip-rule="evenodd" d="M211.308 0.999872H219.735C220.502 0.999872 234.599 19.2088 236.131 21.0977V2.13321C236.131 1.52876 236.668 0.999872 237.28 0.999872H245.708C246.321 0.999872 246.857 1.52876 246.857 2.13321V38.0221C246.857 38.6265 246.321 39.1554 245.708 39.1554H237.28C236.974 39.1554 236.744 39.0799 236.591 38.9288C236.284 38.9288 235.978 38.7777 235.748 38.4754L220.885 20.1154V38.0221C220.885 38.6265 220.348 39.1554 219.735 39.1554H211.308C210.695 39.1554 210.158 38.6265 210.158 38.0221V2.13321C210.158 1.52876 210.695 0.999872 211.308 0.999872ZM96.7665 9.15987C97.8391 7.57321 98.8352 6.51543 100.061 5.45765C101.287 4.39987 102.819 3.34209 104.352 2.58654C105.807 1.83098 107.34 1.37765 108.719 1.15098C110.098 0.924316 111.4 0.924316 112.856 0.924316C114.312 0.924316 115.844 0.924316 117.376 1.15098C118.909 1.37765 120.364 1.90654 121.743 2.66209C123.122 3.41765 124.425 4.32432 125.421 5.30654C126.417 6.21321 127.03 7.19543 127.413 7.64876C127.719 8.17765 127.719 8.25321 127.413 8.63098C127.106 9.00876 126.57 9.68876 125.574 10.8221C124.578 11.9554 123.199 13.4665 122.433 14.1465C121.667 14.9021 121.59 14.8265 121.36 14.6754C121.13 14.5243 120.747 14.2221 120.058 13.6932C119.368 13.1643 118.372 12.3332 117.3 11.7288C116.227 11.1243 115.154 10.7465 114.005 10.5954C112.933 10.4443 111.783 10.5954 110.787 10.8221C109.715 11.0488 108.719 11.4265 107.723 12.2577C106.727 13.0888 105.731 14.2977 105.118 15.5821C104.505 16.9421 104.275 18.3777 104.275 19.8132C104.275 21.2488 104.505 22.5332 105.041 23.7421C105.501 24.951 106.19 25.9332 107.11 26.8399C108.029 27.7465 109.255 28.5777 110.864 28.9554C112.473 29.3332 114.388 29.3332 115.844 29.031C117.3 28.7288 118.219 28.1243 118.679 27.5199C119.138 26.9154 119.062 26.2354 119.062 25.1777C119.062 24.1199 119.062 22.6088 119.062 21.8532C119.062 21.0977 119.062 20.9465 119.062 20.5688C119.062 20.191 119.062 19.4354 119.062 19.0577C119.062 18.6043 119.138 18.4532 119.598 18.3777C120.058 18.3021 120.977 18.3021 122.739 18.3021C124.502 18.3021 127.106 18.3021 128.409 18.3021C129.711 18.3021 129.711 18.3021 129.711 18.3777C129.711 18.3777 129.711 18.3777 129.711 19.6621C129.711 20.9465 129.711 23.5154 129.711 26.6888C129.711 29.9377 129.635 33.8665 129.635 35.9065C129.558 37.9465 129.482 38.0221 129.175 37.9465C128.792 37.7954 128.179 37.4932 127.413 37.191C126.647 36.8888 125.804 36.6621 124.885 36.6621C123.889 36.6621 122.816 36.8132 121.82 37.1154C120.824 37.4177 119.828 37.871 118.525 38.2488C117.223 38.6265 115.461 38.8532 113.775 38.9288C112.09 39.0043 110.481 38.9288 108.872 38.7021C107.34 38.4754 105.807 38.0977 104.428 37.4932C102.972 36.8888 101.67 36.1332 100.521 35.151C99.3715 34.1688 98.4521 33.0354 97.5327 31.751C96.6133 30.4665 95.6939 28.9554 95.081 27.5954C94.3914 26.1599 94.0083 24.7999 93.7785 22.7599C93.5486 20.6443 93.5486 17.8488 94.085 15.3554C94.6979 13.0132 95.7705 10.8221 96.7665 9.15987ZM157.063 0.999872H166.104C166.794 0.999872 167.33 1.52876 167.33 2.20876V18.9065C167.33 19.0577 167.33 19.1332 167.253 19.2843C167.177 20.4177 167.1 22.231 167.023 24.0443C166.947 25.8577 166.87 27.5954 166.717 29.031C166.564 30.4665 166.257 31.5999 165.721 32.7332C165.185 33.8665 164.419 34.9999 163.346 35.9065C162.273 36.8132 160.818 37.5688 159.438 38.0977C158.059 38.6265 156.68 38.8532 155.301 39.0043C153.922 39.1554 152.62 39.1554 150.934 39.0799C149.249 39.0799 147.257 39.0043 145.494 38.8532C143.732 38.7021 142.353 38.3243 141.051 37.9465C139.825 37.4932 138.752 36.9643 137.756 36.2843C136.76 35.6043 135.764 34.8488 135.151 33.9421C134.538 33.0354 134.232 31.9021 134.079 30.391C133.925 28.8043 133.925 26.8399 133.925 23.7421C133.925 22.3065 133.925 20.5688 133.925 18.9821C133.925 18.9821 133.925 18.9821 133.925 18.9065V15.2043V14.2221V2.20876C133.925 1.52876 134.462 0.999872 135.151 0.999872H144.192C144.881 0.999872 145.418 1.52876 145.418 2.20876V18.9065C145.418 18.9821 145.418 19.0577 145.418 19.1332C145.418 19.3599 145.418 19.5865 145.418 19.9643C145.418 21.3243 145.341 23.6665 145.494 25.3288C145.648 26.991 145.954 28.0488 146.567 28.8043C147.18 29.5599 148.176 30.0888 149.402 30.3154C150.628 30.5421 152.16 30.4665 153.233 30.0888C154.305 29.711 154.842 28.8799 155.148 27.7465C155.454 26.6132 155.608 25.0265 155.608 23.2132C155.684 21.3999 155.684 19.4354 155.684 18.151V17.3954V16.0354V2.20876C155.838 1.52876 156.374 0.999872 157.063 0.999872ZM185.718 20.871C186.178 19.4354 186.944 17.3199 187.403 16.0354C187.863 14.751 188.093 14.2977 188.323 14.1465C188.553 13.9954 188.782 14.2221 189.089 15.0532C189.472 15.8843 189.932 17.3954 190.391 18.9065C190.851 20.4177 191.311 21.8532 191.541 22.6843C191.77 23.5154 191.771 23.7421 191.694 23.8177C191.617 23.8932 191.541 23.9688 190.391 23.9688C189.242 23.9688 186.944 23.9688 185.871 23.9688C184.722 23.9688 184.722 23.8932 184.875 23.4399C185.028 22.9865 185.258 22.3065 185.718 20.871ZM174.762 21.7021C176.754 16.4888 179.512 9.4621 180.968 5.75987C182.423 1.98209 182.653 1.52876 182.883 1.22654C183.113 0.999872 183.266 0.999872 184.952 0.999872C186.637 0.999872 189.778 0.999872 191.387 0.999872C192.996 0.999872 193.073 0.999872 193.226 1.30209C193.379 1.60432 193.609 2.20876 195.448 6.66654C197.287 11.1243 200.811 19.4354 203.186 25.3288C205.561 31.2221 206.864 34.6221 207.4 36.511C207.936 38.3999 207.783 38.7777 207.017 38.9288C206.174 39.0799 204.719 39.0799 202.88 39.0043C201.118 39.0043 199.049 39.0043 197.976 38.9288C196.904 38.9288 196.827 38.8532 196.521 38.0221C196.214 37.2665 195.601 35.7554 195.142 34.7732C194.682 33.791 194.375 33.2621 194.069 33.0354C193.763 32.7332 193.533 32.7332 191.694 32.7332C189.855 32.7332 186.484 32.7332 184.645 32.8088C182.883 32.8843 182.73 33.0354 182.5 33.3377C182.27 33.7154 181.964 34.2443 181.657 35.2265C181.274 36.2088 180.891 37.6443 180.738 38.3999C180.508 39.1554 180.508 39.1554 179.435 39.0799C178.286 39.0799 176.064 39.0043 174.225 39.0043C172.387 39.0043 170.931 39.0043 170.165 38.7021C169.399 38.3999 169.399 37.7199 169.475 36.8888C169.628 36.0577 169.858 34.9243 170.701 32.6577C171.467 30.4665 172.77 26.991 174.762 21.7021ZM266.088 20.871C266.548 19.4354 267.314 17.3199 267.774 16.0354C268.233 14.751 268.463 14.2977 268.693 14.1465C268.923 13.9954 269.153 14.2221 269.459 15.0532C269.842 15.8843 270.302 17.3954 270.762 18.9065C271.221 20.4177 271.681 21.8532 271.911 22.6843C272.141 23.5154 272.141 23.7421 272.064 23.8177C271.988 23.8932 271.911 23.9688 270.762 23.9688C269.612 23.9688 267.314 23.9688 266.241 23.9688C265.092 23.9688 265.092 23.8932 265.245 23.4399C265.399 22.9865 265.628 22.3065 266.088 20.871ZM255.132 21.7021C257.124 16.4888 259.882 9.4621 261.338 5.75987C262.794 1.98209 263.023 1.52876 263.253 1.22654C263.483 0.999872 263.636 0.999872 265.322 0.999872C267.008 0.999872 270.149 0.999872 271.758 0.999872C273.367 0.999872 273.443 0.999872 273.597 1.30209C273.75 1.60432 273.98 2.20876 275.818 6.66654C277.657 11.1243 281.182 19.4354 283.557 25.3288C285.932 31.2221 287.234 34.6221 287.77 36.511C288.307 38.3999 288.154 38.7777 287.387 38.9288C286.545 39.0799 285.089 39.0799 283.25 39.0043C281.488 39.0043 279.419 39.0043 278.347 38.9288C277.274 38.9288 277.197 38.8532 276.891 38.0221C276.585 37.2665 275.972 35.7554 275.512 34.7732C275.052 33.791 274.746 33.2621 274.439 33.0354C274.133 32.7332 273.903 32.7332 272.064 32.7332C270.225 32.7332 266.854 32.7332 265.015 32.8088C263.253 32.8843 263.1 33.0354 262.87 33.3377C262.64 33.7154 262.334 34.2443 262.027 35.2265C261.644 36.2088 261.261 37.6443 261.108 38.3999C260.878 39.1554 260.878 39.1554 259.806 39.0799C258.656 39.0799 256.434 39.0043 254.596 39.0043C252.757 39.0043 251.301 39.0043 250.535 38.7021C249.769 38.3999 249.769 37.7199 249.846 36.8888C249.999 36.0577 250.229 34.9243 251.071 32.6577C251.838 30.4665 253.14 26.991 255.132 21.7021ZM77.0762 51.7732H87.7258V54.4177H83.9716V64.0888H80.8304V54.4177H77.0762V51.7732ZM92.5526 57.7421C92.5526 59.1021 92.7825 60.1599 93.3188 60.8399C93.8551 61.5199 94.468 61.8221 95.2342 61.8221C95.9237 61.8221 96.5367 61.5199 97.073 60.9154C97.5327 60.311 97.7625 59.3288 97.7625 57.9688C97.7625 56.6843 97.5327 55.7021 96.9964 55.0977C96.5367 54.4932 95.9237 54.191 95.1576 54.191C94.3914 54.191 93.7785 54.4932 93.2422 55.0977C92.7825 55.6265 92.5526 56.5332 92.5526 57.7421ZM89.488 51.7732H92.3994V53.5865C92.7825 52.9821 93.3188 52.4532 93.9317 52.0754C94.5446 51.6977 95.3108 51.471 96.077 51.471C97.4561 51.471 98.6053 51.9999 99.5247 53.1332C100.444 54.2665 100.98 55.7777 100.98 57.8177C100.98 59.8577 100.521 61.4443 99.5247 62.5777C98.5287 63.711 97.3794 64.3154 96.0004 64.3154C95.3874 64.3154 94.7745 64.1643 94.2382 63.9377C93.7019 63.6354 93.1656 63.1821 92.5526 62.5777V68.6977H89.4114V51.7732H89.488ZM105.884 57.8932C105.884 59.1021 106.19 60.0088 106.727 60.6888C107.263 61.3688 107.952 61.671 108.795 61.671C109.638 61.671 110.251 61.3688 110.864 60.6888C111.4 60.0088 111.707 59.1021 111.707 57.8932C111.707 56.6843 111.4 55.7777 110.864 55.0977C110.328 54.4177 109.638 54.1154 108.795 54.1154C107.952 54.1154 107.34 54.4177 106.727 55.0977C106.19 55.7777 105.884 56.6843 105.884 57.8932ZM102.666 57.7421C102.666 56.6843 102.896 55.6265 103.432 54.6443C103.968 53.6621 104.658 52.831 105.577 52.3021C106.497 51.7732 107.569 51.471 108.719 51.471C110.481 51.471 111.937 52.0754 113.086 53.2843C114.235 54.4932 114.771 56.0043 114.771 57.8932C114.771 59.7821 114.158 61.2932 113.086 62.5021C111.937 63.711 110.481 64.3154 108.719 64.3154C107.646 64.3154 106.65 64.0888 105.654 63.5599C104.658 63.031 103.968 62.2754 103.432 61.2932C102.972 60.3865 102.666 59.1777 102.666 57.7421ZM115.308 51.7732H125.957V54.4177H122.203V64.0888H119.062V54.4177H115.308V51.7732ZM126.877 51.7732H130.171L133.006 60.4621L135.764 51.7732H138.982L134.845 63.5599L134.079 65.6754C133.772 66.3554 133.542 66.9599 133.312 67.3377C133.083 67.7154 132.776 68.0177 132.47 68.2443C132.163 68.471 131.78 68.6977 131.244 68.7732C130.784 68.9243 130.248 68.9999 129.635 68.9999C129.022 68.9999 128.486 68.9243 127.873 68.7732L127.566 66.2799C128.026 66.3554 128.486 66.431 128.869 66.431C129.558 66.431 130.095 66.2043 130.478 65.751C130.861 65.2977 131.091 64.7688 131.244 64.0888L126.877 51.7732ZM147.18 58.1954C146.797 58.3465 146.184 58.4977 145.265 58.7243C144.422 58.951 143.809 59.1021 143.579 59.2532C143.196 59.5554 142.966 59.9332 142.966 60.3865C142.966 60.8399 143.119 61.2177 143.426 61.5954C143.732 61.8977 144.192 62.1243 144.652 62.1243C145.188 62.1243 145.724 61.8977 146.261 61.5199C146.644 61.2177 146.873 60.8399 147.027 60.4621C147.103 60.1599 147.18 59.631 147.18 58.8754V58.1954ZM143.043 55.551L140.208 55.0221C140.514 53.8132 141.051 52.9065 141.817 52.3777C142.583 51.7732 143.732 51.5465 145.265 51.5465C146.644 51.5465 147.716 51.6977 148.406 52.0754C149.095 52.4532 149.555 52.831 149.861 53.3599C150.168 53.8888 150.245 54.871 150.245 56.231L150.168 60.0088C150.168 61.0665 150.245 61.8977 150.321 62.4265C150.398 62.9554 150.628 63.4843 150.857 64.0888H147.793C147.716 63.8621 147.64 63.5599 147.486 63.1065C147.41 62.8799 147.41 62.8043 147.41 62.7288C146.873 63.2577 146.337 63.711 145.724 63.9377C145.111 64.2399 144.498 64.3154 143.809 64.3154C142.583 64.3154 141.664 63.9377 140.974 63.2577C140.284 62.5777 139.901 61.7465 139.901 60.6888C139.901 60.0088 140.055 59.4043 140.361 58.7999C140.668 58.271 141.127 57.8177 141.664 57.591C142.2 57.2888 143.043 57.0621 144.115 56.8354C145.571 56.5332 146.567 56.3065 147.103 56.0043V55.7021C147.103 55.0977 146.95 54.6443 146.644 54.3421C146.337 54.0399 145.801 53.9643 144.958 53.9643C144.422 53.9643 143.962 54.1154 143.656 54.3421C143.502 54.5688 143.196 54.9465 143.043 55.551ZM156.297 57.7421C156.297 59.1021 156.527 60.1599 157.063 60.8399C157.6 61.5199 158.213 61.8221 158.979 61.8221C159.668 61.8221 160.281 61.5199 160.818 60.9154C161.277 60.311 161.507 59.3288 161.507 57.9688C161.507 56.6843 161.277 55.7021 160.741 55.0977C160.281 54.4932 159.668 54.191 158.902 54.191C158.136 54.191 157.523 54.4932 156.987 55.0977C156.527 55.6265 156.297 56.5332 156.297 57.7421ZM153.233 51.7732H156.144V53.5865C156.527 52.9821 157.063 52.4532 157.676 52.0754C158.289 51.6977 159.055 51.471 159.822 51.471C161.201 51.471 162.35 51.9999 163.269 53.1332C164.189 54.2665 164.725 55.7777 164.725 57.8177C164.725 59.8577 164.265 61.4443 163.269 62.5777C162.273 63.711 161.124 64.3154 159.745 64.3154C159.132 64.3154 158.519 64.1643 157.983 63.9377C157.446 63.6354 156.91 63.1821 156.297 62.5777V68.6977H153.233V51.7732ZM167.023 51.7732H170.165V56.231H174.685V51.7732H177.826V64.0132H174.685V58.8754H170.165V64.0132H167.023V51.7732ZM187.403 58.1954C187.02 58.3465 186.407 58.4977 185.488 58.7243C184.645 58.951 184.032 59.1021 183.802 59.2532C183.419 59.5554 183.189 59.9332 183.189 60.3865C183.189 60.8399 183.343 61.2177 183.649 61.5954C183.956 61.8977 184.415 62.1243 184.875 62.1243C185.411 62.1243 185.948 61.8977 186.484 61.5199C186.867 61.2177 187.097 60.8399 187.25 60.4621C187.327 60.1599 187.403 59.631 187.403 58.8754V58.1954ZM183.189 55.551L180.355 55.0221C180.661 53.8132 181.197 52.9065 181.964 52.3777C182.73 51.7732 183.879 51.5465 185.411 51.5465C186.79 51.5465 187.863 51.6977 188.553 52.0754C189.242 52.4532 189.702 52.831 190.008 53.3599C190.315 53.8888 190.391 54.871 190.391 56.231L190.315 60.0088C190.315 61.0665 190.391 61.8977 190.468 62.4265C190.545 62.9554 190.774 63.4843 191.004 64.0888H187.94C187.863 63.8621 187.786 63.5599 187.633 63.1065C187.557 62.8799 187.557 62.8043 187.557 62.7288C187.02 63.2577 186.484 63.711 185.871 63.9377C185.258 64.2399 184.645 64.3154 183.956 64.3154C182.73 64.3154 181.81 63.9377 181.121 63.2577C180.431 62.5777 180.048 61.7465 180.048 60.6888C180.048 60.0088 180.201 59.4043 180.508 58.7999C180.814 58.271 181.274 57.8177 181.81 57.591C182.347 57.2888 183.189 57.0621 184.262 56.8354C185.718 56.5332 186.714 56.3065 187.25 56.0043V55.7021C187.25 55.0977 187.097 54.6443 186.79 54.3421C186.484 54.0399 185.948 53.9643 185.105 53.9643C184.569 53.9643 184.109 54.1154 183.802 54.3421C183.649 54.5688 183.419 54.9465 183.189 55.551ZM200.505 53.8132H198.283C197.44 53.8132 196.904 53.9643 196.521 54.191C196.214 54.4177 195.984 54.871 195.984 55.3999C195.984 56.0043 196.138 56.3821 196.521 56.6088C196.904 56.8354 197.517 56.9865 198.359 56.9865H200.428V53.8132H200.505ZM203.569 51.7732V64.0132H200.428V58.951H200.122C199.432 58.951 198.972 59.0265 198.666 59.2532C198.359 59.4043 197.976 59.7821 197.593 60.3865L197.44 60.6132L195.371 64.0132H191.771L193.992 60.4621C194.605 59.4799 195.218 58.8754 195.755 58.7243C194.912 58.6488 194.146 58.3465 193.609 57.6665C193.073 57.0621 192.767 56.231 192.767 55.2488C192.767 54.4177 192.92 53.7377 193.303 53.2088C193.686 52.6799 194.146 52.2265 194.759 52.0754C195.371 51.8488 196.214 51.7732 197.44 51.7732H203.569ZM212.917 51.7732H223.413V64.0132H220.272V54.4177H216.058V64.0888H212.917V51.7732ZM227.55 51.7732H237.97V64.0132H234.829V54.4177H230.615V59.9332C230.615 61.3688 230.462 62.351 230.155 62.8799C229.849 63.4843 229.466 63.7865 229.083 64.0132C228.699 64.1643 228.087 64.3154 227.244 64.3154C226.784 64.3154 226.095 64.2399 225.252 64.0888V61.671C225.328 61.671 225.482 61.671 225.788 61.671C226.095 61.671 226.401 61.671 226.554 61.671C227.014 61.671 227.244 61.5199 227.32 61.2177C227.397 60.9154 227.474 60.0843 227.474 58.7999V51.7732H227.55ZM241.035 51.7732H244.023V59.4799L248.773 51.7732H251.838V64.0132H248.849V56.231L244.023 64.0888H241.035V51.7732ZM253.676 51.7732H264.326V54.4177H260.572V64.0888H257.43V54.4177H253.676V51.7732ZM266.088 51.7732H269.229V56.7599C269.766 56.6843 270.149 56.5332 270.302 56.231C270.532 55.9288 270.762 55.3999 271.068 54.4932C271.451 53.2843 271.911 52.5288 272.371 52.151C272.83 51.8488 273.443 51.6221 274.209 51.6221C274.439 51.6221 274.822 51.6221 275.435 51.6977V53.8132C274.593 53.8132 274.056 53.8888 273.826 54.0399C273.596 54.191 273.367 54.7199 273.06 55.551C272.677 56.6843 272.141 57.3643 271.528 57.6665C272.524 57.9688 273.367 58.8754 274.056 60.311C274.056 60.3865 274.133 60.4621 274.209 60.5377L275.972 63.9377H272.6L271.068 60.3865C270.762 59.7065 270.455 59.1777 270.225 59.0265C269.996 58.7999 269.612 58.7243 269.153 58.7243V63.9377H266.012V51.7732H266.088ZM284.093 58.1954C283.71 58.3465 283.097 58.4977 282.177 58.7243C281.335 58.951 280.722 59.1021 280.492 59.2532C280.109 59.5554 279.879 59.9332 279.879 60.3865C279.879 60.8399 280.032 61.2177 280.339 61.5954C280.645 61.8977 281.105 62.1243 281.565 62.1243C282.101 62.1243 282.637 61.8977 283.174 61.5199C283.557 61.2177 283.786 60.8399 283.94 60.4621C284.016 60.1599 284.093 59.631 284.093 58.8754V58.1954ZM279.879 55.551L277.044 55.0221C277.351 53.8132 277.887 52.9065 278.653 52.3777C279.419 51.7732 280.569 51.5465 282.101 51.5465C283.48 51.5465 284.553 51.6977 285.242 52.0754C285.932 52.4532 286.391 52.831 286.698 53.3599C287.004 53.8888 287.081 54.871 287.081 56.231L287.004 60.0088C287.004 61.0665 287.081 61.8977 287.158 62.4265C287.234 62.9554 287.464 63.4843 287.694 64.0888H284.629C284.553 63.8621 284.476 63.5599 284.323 63.1065C284.246 62.8799 284.246 62.8043 284.246 62.7288C283.71 63.2577 283.174 63.711 282.561 63.9377C281.948 64.2399 281.335 64.3154 280.645 64.3154C279.419 64.3154 278.5 63.9377 277.81 63.2577C277.121 62.5777 276.738 61.7465 276.738 60.6888C276.738 60.0088 276.891 59.4043 277.197 58.7999C277.504 58.271 277.964 57.8177 278.5 57.591C279.036 57.2888 279.879 57.0621 280.952 56.8354C282.407 56.5332 283.403 56.3065 283.94 56.0043V55.7021C283.94 55.0977 283.786 54.6443 283.48 54.3421C283.174 54.0399 282.637 53.9643 281.794 53.9643C281.258 53.9643 280.798 54.1154 280.492 54.3421C280.339 54.5688 280.109 54.9465 279.879 55.551ZM78.9916 0.999872H88.7218C89.4114 0.999872 90.0243 1.60432 90.0243 2.28432V37.871C90.0243 38.551 89.4114 39.1554 88.7218 39.1554H78.9916C78.302 39.1554 77.6891 38.551 77.6891 37.871V2.28432C77.6891 1.60432 78.302 0.999872 78.9916 0.999872Z" fill="#1A1A18"/>
</svg>
