<svg width="14" height="20" viewBox="0 0 14 20" fill="none" xmlns="http://www.w3.org/2000/svg">
<g clip-path="url(#clip0_3590_11541)">
<path d="M7.02785 0.0288086C3.25449 0.0288086 0.18457 3.13528 0.18457 6.95356C0.18457 11.7527 7.03458 19.9507 7.03458 19.9507C7.03458 19.9507 13.8711 11.5167 13.8711 6.95356C13.8711 3.13528 10.8013 0.0288086 7.02785 0.0288086ZM9.09261 8.98113C8.52328 9.55711 7.77563 9.84517 7.02785 9.84517C6.2802 9.84517 5.5323 9.55711 4.96321 8.98113C3.82467 7.82915 3.82467 5.95467 4.96321 4.80257C5.51452 4.24445 6.24788 3.93707 7.02785 3.93707C7.80783 3.93707 8.54107 4.24458 9.09261 4.80257C10.2312 5.95467 10.2312 7.82915 9.09261 8.98113Z" fill="white"/>
</g>
<defs>
<clipPath id="clip0_3590_11541">
<rect width="14" height="20" fill="white"/>
</clipPath>
</defs>
</svg>
