<svg width="26" height="57" viewBox="0 0 26 57" fill="none" xmlns="http://www.w3.org/2000/svg">
<path d="M25.3451 45.5C25.3451 51.0228 20.8451 56.5 13.8451 56C10.6549 56 7.78193 55.0349 5.8451 53.1046C5.73836 52.9982 5.63447 52.8889 5.53352 52.7767C5.53352 52.7767 3.12215 48.6216 3.34512 45.5C3.34512 41.0895 6.4859 36.7082 10.8451 35.1222C11.9445 34.7222 13.1215 34.5 14.3451 34.5C20.3451 34 25.3451 37.5 25.3451 45.5Z" fill="#28BD25"/>
<path d="M20.3451 4L14.8451 0C14.8451 0 11.8451 3.5 11.5 4C11.1549 4.5 9.43606 7.00122 8.3451 9C6.2934 12.759 3.8451 19 3.8451 19C3.8451 19 1.3451 26 0.845101 29.5C0.345101 33 -0.46773 35.5 0.344951 42C1.03045 47.4828 3.34512 51 5.53352 52.7767C5.53352 52.7767 3.12215 48.6216 3.34512 45.5C3.34512 41.0895 6.4859 36.7082 10.8451 35.1222C10.8451 32 10.9985 25.5697 12.8451 19.5C13.7633 16.482 14.5185 14.3621 15.8451 11.5L15.8505 11.4883C16.5816 9.91106 17.8451 7.5 17.8451 7.5L19.5 5L20.3451 4Z" fill="#28BD25"/>
</svg>
